<svg version="1.1" id="Layer_1" xmlns="http://www.w3.org/2000/svg" xmlns:xlink="http://www.w3.org/1999/xlink" x="0px" y="0px"
	 width="100%" viewBox="0 0 500 500" enable-background="new 0 0 500 500" xml:space="preserve">
<path fill="#FFFFFF" opacity="1.000000" stroke="none" 
	d="
M501.000000,339.000000 
	C501.000000,392.988098 501.000000,446.976196 501.000000,500.982147 
	C334.381958,500.982147 167.763916,500.982147 1.072939,500.982147 
	C1.072939,334.418701 1.072939,167.837387 1.072939,1.128028 
	C167.544495,1.128028 334.089142,1.128028 501.000000,1.128028 
	C501.000000,100.355675 501.000000,199.711807 500.622742,299.504883 
	C499.003387,297.361603 498.285614,294.287903 496.414520,292.299622 
	C491.954376,287.560120 486.989166,283.289551 482.155212,278.909851 
	C475.696533,273.058075 467.093994,273.303741 459.446411,272.567902 
	C453.619537,272.007202 447.162628,274.881470 441.415253,277.263306 
	C429.909729,282.031433 422.485992,290.698273 419.924835,303.073669 
	C419.224731,306.456635 419.229340,309.979645 418.779572,313.421265 
	C417.389526,324.057800 418.209564,334.294800 422.943542,344.182434 
	C428.890778,356.604248 439.494019,363.212433 451.947083,366.417786 
	C461.307617,368.827179 471.372345,367.372864 479.568146,362.102875 
	C485.717682,358.148682 490.531342,352.041473 495.683289,346.647766 
	C497.802094,344.429565 499.247986,341.568604 501.000000,339.000000 
M223.208237,317.953339 
	C221.813416,318.977081 220.418579,320.000824 219.003128,321.000610 
	C219.003128,321.000610 219.017441,321.024323 218.290314,320.997070 
	C215.791794,321.747284 213.069427,322.307312 213.973450,326.651550 
	C213.643341,327.408905 213.313232,328.166260 212.544800,328.451782 
	C211.789398,330.033081 211.033981,331.614410 210.211838,334.078522 
	C210.460892,335.837830 210.709946,337.597137 210.814972,339.779785 
	C210.764481,340.084076 210.805984,340.375275 210.422806,341.450562 
	C210.383530,343.564178 210.344254,345.677765 210.119019,348.550140 
	C210.206818,350.440002 209.362076,353.069244 213.455734,352.564911 
	C213.633163,353.376984 213.810593,354.189087 213.497406,355.387482 
	C215.350510,356.899109 217.203613,358.410706 219.639236,360.246368 
	C221.096863,361.159637 222.554504,362.072906 224.104752,363.737274 
	C224.457642,364.281830 224.796646,365.291138 225.165497,365.302185 
	C232.178268,365.511932 239.195236,365.671173 246.208893,365.599640 
	C246.803436,365.593567 247.380585,363.881927 248.670395,362.909027 
	C249.372681,362.834564 250.074982,362.760132 251.498199,362.829346 
	C255.548309,361.719299 257.725922,356.155701 263.093964,358.586823 
	C263.167450,358.982971 263.240967,359.379150 263.184540,360.499390 
	C264.195740,361.232025 265.206970,361.964630 266.769135,362.735626 
	C267.842865,362.827667 268.916626,362.919678 270.102997,363.753479 
	C273.374817,367.139587 275.804749,366.914429 278.772339,363.024200 
	C280.822510,361.655670 282.872650,360.287140 285.697784,358.889526 
	C286.464142,357.765991 287.867310,356.660858 287.900391,355.516174 
	C288.326355,340.764587 288.730896,326.006561 288.665741,311.252289 
	C288.654877,308.792847 286.385437,306.343414 285.097046,303.109375 
	C284.992554,302.072632 284.888031,301.035858 285.365417,299.670898 
	C284.905273,298.784882 284.445099,297.898834 283.906616,296.289459 
	C279.857880,290.922913 275.809113,285.556335 271.814697,279.454407 
	C268.724152,277.672150 265.678009,275.802307 262.500641,274.191345 
	C261.951935,273.913147 260.846497,274.733093 259.120819,275.011047 
	C257.362793,275.106445 255.604767,275.201843 253.087418,275.185272 
	C252.067398,275.099701 251.047363,275.014099 249.932098,274.192383 
	C246.577591,270.888580 244.224655,271.105743 241.213455,275.040558 
	C240.197342,275.135986 239.181213,275.231415 237.363815,275.050049 
	C236.242340,275.028717 235.120865,275.007385 233.502563,274.442932 
	C228.638443,273.961487 222.056885,277.140045 219.396286,281.272430 
	C218.570267,282.494476 217.744247,283.716522 216.190170,285.079803 
	C212.893738,288.374237 213.093292,290.689911 216.937897,293.831512 
	C217.038712,294.824677 217.139526,295.817810 217.156952,297.570587 
	C219.862000,299.022095 222.503693,300.632263 225.336517,301.763824 
	C225.791183,301.945465 227.099884,299.989044 227.903946,298.919403 
	C227.903946,298.919403 227.861481,298.775909 228.553329,299.002472 
	C229.037033,299.018890 229.520737,299.035309 230.405396,299.521942 
	C231.966446,298.389771 233.527496,297.257629 235.724518,296.065430 
	C236.149673,296.042145 236.574844,296.018890 237.590775,296.580566 
	C244.027222,297.861603 251.179581,295.113617 257.071899,300.753693 
	C257.886719,302.507660 259.165344,304.206970 259.380554,306.031647 
	C259.579254,307.716339 258.637512,309.535553 257.240112,311.099518 
	C251.267334,311.079681 245.269745,310.749054 239.336319,311.222504 
	C237.468277,311.371582 235.772339,313.677582 234.104523,315.093567 
	C234.104523,315.093567 234.138535,315.233948 233.301437,315.006165 
	C231.867935,315.010498 230.434418,315.014832 228.594788,314.496429 
	C227.050720,315.649078 225.506668,316.801727 223.994797,317.990936 
	C223.994797,317.990936 223.965927,317.960907 223.208237,317.953339 
M141.014450,277.154022 
	C139.600937,276.535492 138.187408,275.916992 136.176178,275.254272 
	C135.776489,275.251526 135.376816,275.248810 134.549103,274.605652 
	C130.314209,274.404388 125.871773,273.540314 122.499954,278.513947 
	C121.772507,281.669861 120.453636,284.824951 120.449059,287.981903 
	C120.441154,293.420166 121.596512,298.855927 121.653915,304.299164 
	C121.830452,321.040070 121.806313,337.784637 121.689796,354.526611 
	C121.599884,367.446655 121.172775,380.364532 121.107124,393.284424 
	C121.097214,395.235229 122.240082,397.191925 122.893433,399.891571 
	C123.458298,400.821167 123.798584,402.111908 124.622780,402.624451 
	C132.728683,407.665161 141.979202,405.080383 146.626144,397.908844 
	C147.034317,397.234741 147.442490,396.560608 147.865280,395.255920 
	C147.854630,394.835632 147.843979,394.415314 148.498810,393.463837 
	C148.656799,384.058075 148.755310,374.650665 149.023056,365.248016 
	C149.076492,363.371979 149.776459,361.514313 150.862717,359.875153 
	C161.809509,367.345276 173.021088,370.526184 185.614182,361.918793 
	C186.071274,361.268250 186.528381,360.617737 187.565842,359.659119 
	C189.045166,358.106750 190.524490,356.554382 192.648178,354.921112 
	C193.095612,354.275055 193.543030,353.629028 194.219818,352.554138 
	C194.423676,352.287231 194.685883,352.103668 195.675659,351.944061 
	C196.446732,350.628265 197.217804,349.312500 198.073288,347.263947 
	C199.384827,342.837952 200.696350,338.411957 202.149597,333.263489 
	C203.096954,331.467072 204.756744,329.711060 204.861237,327.866882 
	C205.207123,321.761902 205.142441,315.618286 204.863953,309.506409 
	C204.809113,308.302795 203.099594,307.174561 202.040558,305.162811 
	C200.726334,301.089905 199.412109,297.017029 198.071030,292.180786 
	C197.018707,290.242310 196.194366,288.130676 194.875778,286.394409 
	C188.084915,277.452515 175.423615,270.714081 163.543411,273.806580 
	C157.568085,275.361969 151.889252,278.056305 145.543823,280.435211 
	C144.845123,280.044647 142.962479,278.992310 141.056549,277.940338 
	C141.056549,277.940338 141.062866,277.923279 141.014450,277.154022 
M297.081421,311.950043 
	C297.377350,317.968719 297.673309,323.987366 297.443878,330.453094 
	C298.225586,331.993256 299.007263,333.533447 299.858185,335.909119 
	C300.671356,346.219696 306.175507,353.587006 314.499084,359.157196 
	C324.375031,365.766296 335.422241,366.637146 347.646332,365.919952 
	C348.762360,365.932648 349.878418,365.945312 351.749176,365.960205 
	C354.973175,364.840210 358.529663,364.246490 361.339722,362.471252 
	C365.120331,360.082764 369.146637,357.332031 371.556152,353.726685 
	C374.189789,349.785980 371.411957,342.291901 367.497650,339.107635 
	C364.271790,336.483368 356.187134,336.384064 352.309692,338.355133 
	C349.672180,339.695923 346.650513,340.506653 343.708923,340.963196 
	C340.458252,341.467712 337.102875,341.297485 333.146179,341.277557 
	C332.706482,341.230713 332.266754,341.183899 331.843475,340.412018 
	C329.567261,338.269958 327.291016,336.127899 324.823822,333.459869 
	C324.549835,332.973633 324.275848,332.487427 324.020447,331.237000 
	C323.925537,330.479126 323.830627,329.721222 324.411865,328.471954 
	C324.176788,322.327637 323.941681,316.183289 323.902832,309.386139 
	C323.916290,308.934296 323.929718,308.482483 324.171722,307.489136 
	C324.469727,307.004486 324.767731,306.519806 325.752258,305.941956 
	C329.163727,302.618530 332.454163,299.156281 337.593231,298.480743 
	C338.174194,298.404388 338.577087,296.973175 339.873077,296.082031 
	C341.229919,296.104126 342.586792,296.126221 344.076508,296.856598 
	C345.427155,297.891663 346.649841,299.224304 348.165405,299.875763 
	C349.601807,300.493256 351.556274,299.983795 352.919464,300.680786 
	C362.208771,305.430481 372.102295,299.568329 372.013489,289.324310 
	C371.989288,286.533417 371.171295,284.838806 367.888062,284.289398 
	C364.947083,282.167206 362.006104,280.045044 358.923187,277.226349 
	C357.218933,276.585022 355.514679,275.943695 352.925598,275.201141 
	C343.349396,275.240234 333.773193,275.279327 323.422852,275.125854 
	C320.015137,277.156647 314.899658,276.257111 312.680084,281.237244 
	C312.680084,281.237244 312.212708,281.329224 311.507050,281.177734 
	C310.359741,282.471252 309.212463,283.764740 307.725952,285.653076 
	C305.115082,291.088257 302.504242,296.523407 299.147614,302.101349 
	C298.469604,305.095184 297.791595,308.089020 297.081421,311.950043 
M383.038239,252.967255 
	C383.038239,252.967255 383.187714,252.865341 383.097931,253.640640 
	C385.053833,258.544586 393.105804,261.582245 397.362061,259.049713 
	C398.608124,258.308289 399.854828,257.474884 401.214874,257.034973 
	C405.716858,255.578934 408.451721,252.339035 408.872803,247.919754 
	C409.869202,237.461899 403.621277,231.123840 393.131287,230.974976 
	C382.101410,230.818451 376.349548,240.877563 379.926636,249.852295 
	C380.413452,251.073822 382.044617,251.839233 383.038239,252.967255 
M107.972908,336.059906 
	C107.962975,328.373901 107.953041,320.687897 108.484238,312.607239 
	C107.657532,311.403534 106.830826,310.199829 105.692413,308.347382 
	C103.413567,302.331421 100.919281,296.529846 94.774467,293.230743 
	C93.089699,292.326172 91.905197,290.536316 90.320297,289.388641 
	C87.787392,287.554443 85.263390,285.602997 82.468605,284.254517 
	C72.989517,279.680908 63.247898,275.625610 53.950951,270.719666 
	C51.807930,269.588806 49.783577,265.815613 49.872967,263.336548 
	C50.116211,256.590759 56.463928,250.761475 63.352562,250.026215 
	C72.002182,249.103012 80.094398,250.760147 87.377724,255.756607 
	C90.700958,258.036377 98.373688,257.664246 100.393700,254.837143 
	C107.578987,244.780945 107.800568,236.397400 94.729599,231.301270 
	C88.246262,228.773514 80.935814,228.367203 73.829880,226.215363 
	C70.093567,224.741531 66.358200,223.280502 62.257130,227.351608 
	C61.295074,227.564224 60.336567,227.943222 59.370422,227.963791 
	C49.427910,228.175705 40.556427,231.416534 33.553535,238.419510 
	C27.760096,244.213013 21.621338,250.295197 24.705317,260.840210 
	C24.662899,263.585876 24.620481,266.331512 24.131998,269.701599 
	C22.958424,275.122101 24.618477,280.203491 27.492083,284.398651 
	C34.925758,295.251007 46.404495,300.829803 57.850544,306.398651 
	C63.899616,309.341705 69.890892,312.535950 75.468498,316.273132 
	C79.808319,319.181000 82.359657,328.713348 79.738388,332.760620 
	C76.709755,337.436890 72.366959,340.523682 66.131279,341.214569 
	C54.955257,342.452850 46.929199,337.033447 39.165195,330.367065 
	C37.961208,329.333282 36.636398,328.230316 35.173241,327.745636 
	C29.691364,325.929779 24.679449,327.548462 21.611773,334.564758 
	C19.765720,338.787018 19.659620,345.574646 21.875088,349.422577 
	C28.007780,360.074158 39.451759,363.508972 50.721470,365.772614 
	C57.152161,367.064301 63.983284,367.172150 70.560455,366.726410 
	C79.428886,366.125366 87.566269,362.722473 94.823380,357.505615 
	C100.844551,353.177246 104.496445,347.261414 106.665680,339.948242 
	C107.088890,338.964172 107.512100,337.980133 107.972908,336.059906 
M183.413513,148.697556 
	C186.104187,154.581345 188.139084,160.890472 191.622086,166.260330 
	C198.866653,177.429520 207.794891,187.255051 218.826920,194.902710 
	C226.078873,199.929947 233.363510,204.959991 240.988068,209.376694 
	C244.317245,211.305191 248.486038,212.242859 252.365860,212.585678 
	C254.599701,212.783051 257.158112,211.137741 259.328491,209.898224 
	C267.733917,205.097839 276.699188,200.959290 284.225433,195.015991 
	C294.311218,187.051422 304.080963,178.365402 310.357849,166.734573 
	C313.232880,161.407242 317.396606,156.063217 318.045166,150.391617 
	C319.489532,137.760895 321.672028,124.659264 315.298920,112.519981 
	C312.668335,107.509346 309.775055,102.543625 306.332153,98.072708 
	C300.029297,89.887848 292.077515,83.452049 282.468384,79.535965 
	C276.957916,77.290230 271.080261,75.922745 265.326935,74.305717 
	C262.674774,73.560295 259.866180,72.498596 257.228912,72.729111 
	C247.446823,73.584084 237.653717,74.605179 227.979736,76.243019 
	C224.684784,76.800873 221.897324,80.005318 218.582840,80.872841 
	C211.960449,82.606171 206.781952,86.678368 202.461441,91.288124 
	C197.384827,96.704590 193.472580,103.256958 189.351440,109.511787 
	C185.223175,115.777428 182.798218,122.622887 183.173676,130.344940 
	C183.456635,136.164642 183.292938,142.006042 183.413513,148.697556 
M408.901276,335.499847 
	C408.901154,319.168213 408.901764,302.836578 408.900330,286.504944 
	C408.899994,282.549225 407.945465,279.621246 404.243042,276.883148 
	C399.446564,273.335907 394.530762,274.173004 389.532440,274.136963 
	C384.424103,274.100159 380.043762,278.790710 380.039001,283.934082 
	C380.017578,306.931671 380.021637,329.929291 380.030609,352.926880 
	C380.033478,360.310638 387.480072,366.836517 394.777893,365.888458 
	C402.312103,364.909729 408.899628,357.498688 408.901123,349.998291 
	C408.902039,345.498749 408.901154,340.999237 408.901276,335.499847 
z"/>
<path fill="#FFD4B8" opacity="1.000000" stroke="none" 
	d="
M501.000000,338.531342 
	C499.247986,341.568604 497.802094,344.429565 495.683289,346.647766 
	C490.531342,352.041473 485.717682,358.148682 479.568146,362.102875 
	C471.372345,367.372864 461.307617,368.827179 451.947083,366.417786 
	C439.494019,363.212433 428.890778,356.604248 422.943542,344.182434 
	C418.209564,334.294800 417.389526,324.057800 418.779572,313.421265 
	C419.229340,309.979645 419.224731,306.456635 419.924835,303.073669 
	C422.485992,290.698273 429.909729,282.031433 441.415253,277.263306 
	C447.162628,274.881470 453.619537,272.007202 459.446411,272.567902 
	C467.093994,273.303741 475.696533,273.058075 482.155212,278.909851 
	C486.989166,283.289551 491.954376,287.560120 496.414520,292.299622 
	C498.285614,294.287903 499.003387,297.361603 500.622742,299.970947 
	C501.000000,312.687561 501.000000,325.375122 501.000000,338.531342 
M496.152679,298.701508 
	C490.958191,288.251343 482.749329,281.452087 471.686127,277.703522 
	C460.525604,273.921936 450.194702,276.030548 440.195068,281.268494 
	C430.700409,286.241913 424.378296,294.515778 422.643372,304.569824 
	C420.974854,314.239136 421.921631,324.432556 422.417358,334.360840 
	C422.578339,337.585083 424.569916,340.931213 426.371246,343.817841 
	C430.718475,350.784241 435.962921,357.127258 444.121063,359.694702 
	C449.985535,361.540314 456.197601,363.729492 462.145844,363.450043 
	C467.996277,363.175140 473.959625,360.512939 479.425568,357.944946 
	C488.067596,353.884827 494.014709,346.513397 496.694672,337.703613 
	C500.510590,325.159668 500.057678,312.184265 496.152679,298.701508 
z"/>
<path fill="#FF9956" opacity="1.000000" stroke="none" 
	d="
M24.578068,269.077179 
	C24.620481,266.331512 24.662899,263.585876 24.997570,260.211548 
	C26.831726,255.239655 27.632441,250.420380 30.057674,246.644547 
	C36.724800,236.264465 47.354801,231.971466 58.994137,229.867172 
	C70.692238,227.752258 82.058434,229.712006 93.315971,232.954208 
	C102.391045,235.567871 105.403519,245.538269 99.028381,252.410095 
	C96.780258,254.833328 93.928642,255.988449 90.974823,253.960876 
	C82.080170,247.855347 72.117867,247.456085 61.910053,248.091370 
	C55.362587,248.498856 48.381973,254.319366 47.217682,260.325928 
	C46.269833,265.215851 50.768433,273.241211 56.021915,275.756256 
	C65.656197,280.368530 75.430359,284.698822 84.964661,289.506653 
	C93.686432,293.904785 100.754539,300.629883 103.577637,309.916656 
	C106.137131,318.336273 106.627533,327.071991 104.583961,336.349640 
	C101.943977,348.334930 88.864502,359.076202 79.524017,361.274414 
	C69.385895,363.660400 59.265312,364.903503 49.152737,361.811584 
	C39.528198,358.868866 29.341066,356.812073 23.884806,346.601532 
	C21.198009,341.573608 21.776783,337.180420 26.803745,332.668549 
	C31.033028,328.872620 32.753372,329.086456 38.298504,333.672424 
	C47.313934,341.128448 56.685406,346.074432 69.396271,343.324829 
	C77.380096,341.597778 81.938095,337.452820 84.362091,330.648865 
	C86.617760,324.317413 83.757072,318.117889 78.786133,314.798676 
	C69.553543,308.633759 59.569645,303.516754 49.611759,298.536957 
	C39.587376,293.523926 30.836699,287.671204 27.678856,276.053345 
	C27.019167,273.626312 25.630695,271.397400 24.578068,269.077179 
z"/>
<path fill="#FF9856" opacity="1.000000" stroke="none" 
	d="
M210.939484,340.653381 
	C210.805984,340.375275 210.764481,340.084076 211.170685,339.463806 
	C212.225189,338.281158 213.473358,337.451263 213.534195,336.541901 
	C213.950714,330.317383 217.389221,325.657501 221.209015,320.884796 
	C221.518753,320.418549 221.762909,320.221771 222.453354,320.083984 
	C226.612961,318.465729 230.375748,316.849823 234.138535,315.233948 
	C234.138535,315.233948 234.104523,315.093567 234.415131,315.121826 
	C235.467682,315.161133 236.209656,315.172119 237.273849,315.438538 
	C244.646927,315.455750 251.730484,315.515961 258.723328,314.749054 
	C260.280945,314.578247 262.962189,311.153107 262.643616,309.819275 
	C261.536407,305.183136 259.539856,300.707153 257.401733,296.408936 
	C256.911316,295.423126 254.505783,295.390015 252.678055,294.900940 
	C251.970688,294.855316 251.566895,294.827271 251.059250,294.428772 
	C250.233459,293.432098 249.584625,292.386200 248.778091,292.245728 
	C241.986618,291.063049 235.857864,293.629395 229.758347,296.020172 
	C228.898163,296.357361 228.482758,297.829254 227.861481,298.775909 
	C227.861481,298.775909 227.903946,298.919403 227.548523,298.899658 
	C225.161469,298.555481 223.129822,298.231018 221.070953,297.513916 
	C220.679199,296.396515 220.012741,295.676697 220.000870,294.946198 
	C219.939514,291.171143 218.874969,286.767395 220.456070,283.810425 
	C221.771088,281.351044 226.236038,280.530243 229.357208,279.095642 
	C232.257797,277.762421 235.226425,276.577240 238.165100,275.326874 
	C239.181213,275.231415 240.197342,275.135986 242.031387,275.089233 
	C245.241989,275.068146 247.634674,274.998352 250.027344,274.928528 
	C251.047363,275.014099 252.067398,275.099701 253.594086,275.569214 
	C254.824570,276.278076 255.554047,276.590973 256.271240,276.929810 
	C262.119904,279.692932 268.704071,281.529266 273.643768,285.441406 
	C281.438110,291.614471 283.729858,301.047028 283.907990,310.677216 
	C284.169495,324.816772 283.876892,338.965881 284.038391,353.108429 
	C284.084015,357.101318 282.044373,359.467377 278.876862,360.794861 
	C274.795654,362.505249 267.677704,360.888702 265.927704,358.318573 
	C265.563385,357.783539 265.259216,357.169312 265.087219,356.547363 
	C263.242157,349.875305 261.497070,349.458344 256.277466,354.314362 
	C248.363846,361.676758 239.200638,364.685333 228.564392,361.695587 
	C225.003143,360.694580 221.590805,359.163788 218.050568,357.678375 
	C217.990738,357.481598 217.851715,357.093109 217.864258,356.725159 
	C216.718262,353.525513 215.615768,350.669159 214.384308,347.869507 
	C213.311615,345.430878 212.093399,343.056274 210.939484,340.653381 
M243.808212,347.689148 
	C255.167786,346.370697 262.607147,338.840454 261.754730,329.116669 
	C261.631561,327.711670 259.700928,325.368958 258.559418,325.340271 
	C253.775238,325.219910 248.867615,325.304962 244.202408,326.269012 
	C237.386932,327.677460 233.536667,332.679016 234.342514,338.412292 
	C235.038376,343.363068 238.548721,346.037323 243.808212,347.689148 
z"/>
<path fill="#86DCD8" opacity="1.000000" stroke="none" 
	d="
M183.370789,148.267670 
	C183.292938,142.006042 183.456635,136.164642 183.173676,130.344940 
	C182.798218,122.622887 185.223175,115.777428 189.351440,109.511787 
	C193.472580,103.256958 197.384827,96.704590 202.461441,91.288124 
	C206.781952,86.678368 211.960449,82.606171 218.582840,80.872841 
	C221.897324,80.005318 224.684784,76.800873 227.979736,76.243019 
	C237.653717,74.605179 247.446823,73.584084 257.228912,72.729111 
	C259.866180,72.498596 262.674774,73.560295 265.326935,74.305717 
	C271.080261,75.922745 276.957916,77.290230 282.468384,79.535965 
	C292.077515,83.452049 300.029297,89.887848 306.332153,98.072708 
	C309.775055,102.543625 312.668335,107.509346 315.298920,112.519981 
	C321.672028,124.659264 319.489532,137.760895 318.045166,150.391617 
	C317.396606,156.063217 313.232880,161.407242 310.357849,166.734573 
	C304.080963,178.365402 294.311218,187.051422 284.225433,195.015991 
	C276.699188,200.959290 267.733917,205.097839 259.328491,209.898224 
	C257.158112,211.137741 254.599701,212.783051 252.365860,212.585678 
	C248.486038,212.242859 244.317245,211.305191 240.988068,209.376694 
	C233.363510,204.959991 226.078873,199.929947 218.826920,194.902710 
	C207.794891,187.255051 198.866653,177.429520 191.622086,166.260330 
	C188.139084,160.890472 186.104187,154.581345 183.370789,148.267670 
M201.295166,97.841743 
	C191.125443,108.520439 187.266876,121.758530 185.876740,135.980881 
	C185.748230,137.295654 185.552521,138.801971 186.035217,139.946350 
	C189.295685,147.676315 189.782028,156.167480 194.511505,163.671890 
	C201.354752,174.530289 210.081009,183.371063 219.879608,191.137772 
	C227.060074,196.829254 235.443375,200.978928 243.082413,206.124756 
	C248.112579,209.513184 253.390350,209.041565 258.235748,206.974335 
	C262.976959,204.951553 267.093414,201.478485 271.516296,198.693115 
	C286.252808,189.412689 299.674438,178.865631 308.027771,162.983292 
	C312.398071,154.673965 316.165161,146.334656 316.384216,136.709015 
	C316.518066,130.828339 316.175110,125.140388 313.442078,119.798355 
	C310.281219,113.620003 308.093781,106.670631 303.836670,101.381744 
	C294.332794,89.574524 282.308350,81.815262 266.850433,78.387329 
	C253.156006,75.350464 240.166550,76.406860 227.475784,80.475616 
	C217.685013,83.614624 209.021606,89.664017 201.295166,97.841743 
z"/>
<path fill="#FFD5B9" opacity="1.000000" stroke="none" 
	d="
M24.355034,269.389404 
	C25.630695,271.397400 27.019167,273.626312 27.678856,276.053345 
	C30.836699,287.671204 39.587376,293.523926 49.611759,298.536957 
	C59.569645,303.516754 69.553543,308.633759 78.786133,314.798676 
	C83.757072,318.117889 86.617760,324.317413 84.362091,330.648865 
	C81.938095,337.452820 77.380096,341.597778 69.396271,343.324829 
	C56.685406,346.074432 47.313934,341.128448 38.298504,333.672424 
	C32.753372,329.086456 31.033028,328.872620 26.803745,332.668549 
	C21.776783,337.180420 21.198009,341.573608 23.884806,346.601532 
	C29.341066,356.812073 39.528198,358.868866 49.152737,361.811584 
	C59.265312,364.903503 69.385895,363.660400 79.524017,361.274414 
	C88.864502,359.076202 101.943977,348.334930 104.583961,336.349640 
	C106.627533,327.071991 106.137131,318.336273 103.577637,309.916656 
	C100.754539,300.629883 93.686432,293.904785 84.964661,289.506653 
	C75.430359,284.698822 65.656197,280.368530 56.021915,275.756256 
	C50.768433,273.241211 46.269833,265.215851 47.217682,260.325928 
	C48.381973,254.319366 55.362587,248.498856 61.910053,248.091370 
	C72.117867,247.456085 82.080170,247.855347 90.974823,253.960876 
	C93.928642,255.988449 96.780258,254.833328 99.028381,252.410095 
	C105.403519,245.538269 102.391045,235.567871 93.315971,232.954208 
	C82.058434,229.712006 70.692238,227.752258 58.994137,229.867172 
	C47.354801,231.971466 36.724800,236.264465 30.057674,246.644547 
	C27.632441,250.420380 26.831726,255.239655 24.942556,259.757263 
	C21.621338,250.295197 27.760096,244.213013 33.553535,238.419510 
	C40.556427,231.416534 49.427910,228.175705 59.370422,227.963791 
	C60.336567,227.943222 61.295074,227.564224 63.088886,227.194763 
	C67.280281,227.025650 70.639923,227.013397 73.999565,227.001144 
	C80.935814,228.367203 88.246262,228.773514 94.729599,231.301270 
	C107.800568,236.397400 107.578987,244.780945 100.393700,254.837143 
	C98.373688,257.664246 90.700958,258.036377 87.377724,255.756607 
	C80.094398,250.760147 72.002182,249.103012 63.352562,250.026215 
	C56.463928,250.761475 50.116211,256.590759 49.872967,263.336548 
	C49.783577,265.815613 51.807930,269.588806 53.950951,270.719666 
	C63.247898,275.625610 72.989517,279.680908 82.468605,284.254517 
	C85.263390,285.602997 87.787392,287.554443 90.320297,289.388641 
	C91.905197,290.536316 93.089699,292.326172 94.774467,293.230743 
	C100.919281,296.529846 103.413567,302.331421 105.868011,309.003784 
	C106.676773,310.774078 107.309937,311.887970 107.943108,313.001892 
	C107.953041,320.687897 107.962975,328.373901 107.670853,336.671997 
	C106.919556,338.195496 106.470322,339.106934 106.021080,340.018372 
	C104.496445,347.261414 100.844551,353.177246 94.823380,357.505615 
	C87.566269,362.722473 79.428886,366.125366 70.560455,366.726410 
	C63.983284,367.172150 57.152161,367.064301 50.721470,365.772614 
	C39.451759,363.508972 28.007780,360.074158 21.875088,349.422577 
	C19.659620,345.574646 19.765720,338.787018 21.611773,334.564758 
	C24.679449,327.548462 29.691364,325.929779 35.173241,327.745636 
	C36.636398,328.230316 37.961208,329.333282 39.165195,330.367065 
	C46.929199,337.033447 54.955257,342.452850 66.131279,341.214569 
	C72.366959,340.523682 76.709755,337.436890 79.738388,332.760620 
	C82.359657,328.713348 79.808319,319.181000 75.468498,316.273132 
	C69.890892,312.535950 63.899616,309.341705 57.850544,306.398651 
	C46.404495,300.829803 34.925758,295.251007 27.492083,284.398651 
	C24.618477,280.203491 22.958424,275.122101 24.355034,269.389404 
z"/>
<path fill="#FFD8BF" opacity="1.000000" stroke="none" 
	d="
M408.901184,335.999756 
	C408.901154,340.999237 408.902039,345.498749 408.901123,349.998291 
	C408.899628,357.498688 402.312103,364.909729 394.777893,365.888458 
	C387.480072,366.836517 380.033478,360.310638 380.030609,352.926880 
	C380.021637,329.929291 380.017578,306.931671 380.039001,283.934082 
	C380.043762,278.790710 384.424103,274.100159 389.532440,274.136963 
	C394.530762,274.173004 399.446564,273.335907 404.243042,276.883148 
	C407.945465,279.621246 408.899994,282.549225 408.900330,286.504944 
	C408.901764,302.836578 408.901154,319.168213 408.901184,335.999756 
M400.767487,360.556122 
	C402.169312,357.362946 404.730469,354.189575 404.785309,350.973419 
	C405.148193,329.683868 404.996094,308.385132 404.958984,287.089447 
	C404.948151,280.863678 399.739105,275.387421 393.749237,276.280487 
	C386.527893,277.357147 382.905975,279.239502 382.938599,287.150848 
	C383.028473,308.945343 382.958191,330.740479 382.985260,352.535309 
	C382.990906,357.085968 386.125702,361.405640 390.271973,361.752777 
	C393.495514,362.022705 396.804962,361.266510 400.767487,360.556122 
z"/>
<path fill="#FFBA8D" opacity="1.000000" stroke="none" 
	d="
M324.196991,275.318420 
	C333.773193,275.279327 343.349396,275.240234 353.490112,275.565216 
	C355.724792,276.593811 357.394958,277.258331 359.065125,277.922852 
	C362.006104,280.045044 364.947083,282.167206 367.995605,285.014954 
	C369.818268,290.276550 368.659332,294.377930 365.589844,297.748444 
	C362.214020,301.455292 358.114136,300.997650 353.766174,299.124084 
	C350.644257,297.778839 347.228363,297.115753 343.943634,296.148315 
	C342.586792,296.126221 341.229919,296.104126 339.064697,296.052582 
	C331.684235,296.354309 326.078613,300.609100 325.065735,306.035156 
	C324.767731,306.519806 324.469727,307.004486 323.782288,307.773956 
	C323.209229,308.047607 323.025635,308.036438 322.896301,307.614014 
	C324.151398,304.462769 324.830963,301.289429 326.668701,299.078949 
	C329.838776,295.265930 334.124939,293.243408 339.417694,294.014771 
	C344.223938,294.715210 349.354584,292.676697 353.833008,296.307983 
	C357.638702,299.393799 362.162018,298.612152 365.073792,294.860535 
	C367.240570,292.068756 366.301819,286.243530 363.187836,283.722778 
	C357.695038,279.276367 351.076721,277.512451 344.306824,277.061218 
	C337.128357,276.582764 329.733551,275.885620 323.035095,279.884583 
	C318.482910,282.602234 312.374420,284.121002 309.569275,288.041504 
	C304.842682,294.647369 301.011108,302.213837 301.831024,311.235657 
	C302.461487,318.172974 301.256805,325.308899 302.190552,332.176697 
	C302.931335,337.625305 304.824341,343.323975 307.692749,347.999359 
	C315.892090,361.363892 329.310760,362.598969 343.293732,361.801544 
	C346.913330,361.595062 350.538574,361.487885 354.070862,361.626984 
	C352.983673,362.595917 351.986877,363.272980 350.624817,363.959961 
	C349.117065,364.538116 347.974548,365.106323 346.832031,365.674561 
	C335.422241,366.637146 324.375031,365.766296 314.499084,359.157196 
	C306.175507,353.587006 300.671356,346.219696 299.915894,335.078613 
	C299.944275,332.853027 299.914917,331.457977 299.926453,329.592285 
	C299.939301,323.059845 299.911224,316.997986 299.914581,310.492126 
	C299.928497,307.351562 299.910919,304.655060 299.893372,301.958557 
	C302.504242,296.523407 305.115082,291.088257 308.228729,285.317413 
	C309.891907,283.764221 311.052307,282.546722 312.212708,281.329224 
	C312.212708,281.329224 312.680084,281.237244 313.274719,281.157959 
	C317.311890,279.158600 320.754456,277.238525 324.196991,275.318420 
z"/>
<path fill="#FFCFB0" opacity="1.000000" stroke="none" 
	d="
M192.003815,355.001984 
	C190.524490,356.554382 189.045166,358.106750 186.953186,359.851379 
	C185.879211,360.689056 185.417908,361.334442 184.956604,361.979828 
	C173.021088,370.526184 161.809509,367.345276 150.465485,359.408051 
	C149.445236,358.356903 148.822220,357.772858 148.199188,357.188812 
	C147.791733,358.170288 147.041245,359.148010 147.030518,360.133789 
	C146.935547,368.865204 146.907669,377.598755 147.008926,386.329987 
	C147.038589,388.887848 147.545288,391.440155 147.833344,393.995026 
	C147.843979,394.415314 147.854630,394.835632 147.554626,395.639557 
	C146.815857,396.667480 146.387726,397.311768 145.959595,397.956055 
	C141.979202,405.080383 132.728683,407.665161 124.622780,402.624451 
	C123.798584,402.111908 123.458298,400.821167 123.225189,399.467651 
	C124.030762,399.036499 124.504570,399.029297 125.091011,399.410156 
	C128.028244,400.256134 130.845703,401.048218 133.678818,401.108856 
	C142.018326,401.287354 144.037170,399.213928 144.045029,391.049561 
	C144.056076,379.588287 144.012543,368.126709 144.097549,356.666046 
	C144.110748,354.887390 144.683578,353.112885 145.235840,349.988861 
	C154.291977,359.034851 163.298752,364.954559 175.473572,362.028351 
	C187.373215,359.168243 193.406616,350.363342 198.208862,339.822144 
	C198.976395,338.415558 199.455215,337.181732 200.031219,335.669434 
	C200.250946,335.237152 200.373474,335.083344 200.634857,334.746155 
	C201.185104,334.370483 201.596497,334.178223 202.007889,333.985962 
	C200.696350,338.411957 199.384827,342.837952 197.732697,347.769226 
	C196.596893,349.517487 195.801666,350.760468 195.006439,352.003418 
	C194.685883,352.103668 194.423676,352.287231 193.782959,352.807678 
	C192.898666,353.708130 192.451233,354.355072 192.003815,355.001984 
z"/>
<path fill="#FFB27F" opacity="1.000000" stroke="none" 
	d="
M124.978386,399.022095 
	C124.504570,399.029297 124.030762,399.036499 123.203331,399.094788 
	C122.240082,397.191925 121.097214,395.235229 121.107124,393.284424 
	C121.172775,380.364532 121.599884,367.446655 121.689796,354.526611 
	C121.806313,337.784637 121.830452,321.040070 121.653915,304.299164 
	C121.596512,298.855927 120.441154,293.420166 120.449059,287.981903 
	C120.453636,284.824951 121.772507,281.669861 123.210281,278.335297 
	C126.652023,277.522186 129.383438,276.887726 132.028137,276.590088 
	C131.546249,277.446259 131.195496,278.374847 130.749237,278.423279 
	C124.759155,279.073364 124.882301,283.146667 124.898155,287.771271 
	C125.025238,324.854523 124.974625,361.938416 124.978386,399.022095 
z"/>
<path fill="#FFC39C" opacity="1.000000" stroke="none" 
	d="
M218.110382,357.875183 
	C221.590805,359.163788 225.003143,360.694580 228.564392,361.695587 
	C239.200638,364.685333 248.363846,361.676758 256.277466,354.314362 
	C261.497070,349.458344 263.242157,349.875305 265.087219,356.547363 
	C265.259216,357.169312 265.563385,357.783539 265.927704,358.318573 
	C267.677704,360.888702 274.795654,362.505249 278.876862,360.794861 
	C282.044373,359.467377 284.084015,357.101318 284.038391,353.108429 
	C283.876892,338.965881 284.169495,324.816772 283.907990,310.677216 
	C283.729858,301.047028 281.438110,291.614471 273.643768,285.441406 
	C268.704071,281.529266 262.119904,279.692932 256.271240,276.929810 
	C255.554047,276.590973 254.824570,276.278076 253.973755,275.625244 
	C255.604767,275.201843 257.362793,275.106445 259.766602,275.304199 
	C264.195068,277.128143 267.977722,278.658966 271.760376,280.189789 
	C275.809113,285.556335 279.857880,290.922913 283.929138,296.979431 
	C284.228973,298.445984 284.506256,299.222534 284.783539,299.999115 
	C284.888031,301.035858 284.992554,302.072632 285.113281,303.926880 
	C285.413666,306.870117 285.932159,308.994537 285.943878,311.121735 
	C286.019073,324.773163 286.031647,338.425568 285.936096,352.076752 
	C285.920105,354.359619 285.276428,356.638092 284.922791,358.918579 
	C282.872650,360.287140 280.822510,361.655670 277.948761,362.996368 
	C274.746918,362.982941 272.368622,362.997314 269.990356,363.011688 
	C268.916626,362.919678 267.842865,362.827667 266.403320,362.420288 
	C265.129791,361.328369 264.222137,360.551849 263.314453,359.775299 
	C263.240967,359.379150 263.167450,358.982971 263.053467,357.898560 
	C261.517639,356.587311 259.340546,355.011017 258.645996,355.507782 
	C255.778549,357.558502 253.360474,360.237549 250.777252,362.685669 
	C250.074982,362.760132 249.372681,362.834564 247.922256,362.937164 
	C242.815369,363.651428 238.465256,364.793152 234.095093,364.875885 
	C230.747238,364.939270 227.374054,363.665314 224.012131,362.986145 
	C222.554504,362.072906 221.096863,361.159637 219.223740,359.828979 
	C218.575623,358.899475 218.343002,358.387329 218.110382,357.875183 
z"/>
<path fill="#FFE7D8" opacity="1.000000" stroke="none" 
	d="
M383.145935,252.815826 
	C382.044617,251.839233 380.413452,251.073822 379.926636,249.852295 
	C376.349548,240.877563 382.101410,230.818451 393.131287,230.974976 
	C403.621277,231.123840 409.869202,237.461899 408.872803,247.919754 
	C408.451721,252.339035 405.716858,255.578934 401.214874,257.034973 
	C399.854828,257.474884 398.608124,258.308289 397.362061,259.049713 
	C393.105804,261.582245 385.053833,258.544586 383.494080,253.315887 
	C389.517059,257.188904 395.703583,257.320496 401.681854,254.439774 
	C405.945831,252.385086 408.223053,245.051880 406.589417,241.390228 
	C404.113861,235.841461 395.638885,231.404114 390.458435,233.432388 
	C386.032867,235.165100 381.545868,237.300705 381.206665,243.524002 
	C381.186310,244.881332 381.211823,245.870041 381.175629,247.220123 
	C381.791260,249.326279 382.468597,251.071060 383.145935,252.815826 
z"/>
<path fill="#FFDCC5" opacity="1.000000" stroke="none" 
	d="
M141.079834,277.939972 
	C142.962479,278.992310 144.845123,280.044647 145.543823,280.435211 
	C151.889252,278.056305 157.568085,275.361969 163.543411,273.806580 
	C175.423615,270.714081 188.084915,277.452515 194.875778,286.394409 
	C196.194366,288.130676 197.018707,290.242310 197.793396,292.586182 
	C197.322159,293.004089 197.128586,293.016541 196.637695,292.873291 
	C195.519592,291.710175 194.628326,290.751770 193.889481,289.687531 
	C189.339325,283.133392 183.143982,278.105713 175.656006,276.370331 
	C167.614899,274.506683 159.292801,275.773224 152.269196,281.149017 
	C150.192047,282.738831 148.007050,285.622192 146.034836,285.489227 
	C144.256638,285.369354 142.701904,281.934174 141.026871,279.624451 
	C141.030029,278.838501 141.054932,278.389221 141.079834,277.939972 
z"/>
<path fill="#FFDCC5" opacity="1.000000" stroke="none" 
	d="
M350.990112,363.950043 
	C351.986877,363.272980 352.983673,362.595917 354.378845,361.579681 
	C355.192871,361.242493 355.608582,361.244476 356.257446,361.446472 
	C359.966492,359.630585 363.931915,358.145142 366.814026,355.485687 
	C372.421326,350.311676 370.380737,342.728729 362.796570,339.699402 
	C361.047028,339.368256 359.584137,339.265015 357.740295,339.113190 
	C356.044006,339.640808 354.743408,340.253967 353.410736,340.786987 
	C346.951782,343.370392 340.446106,344.742035 333.793091,341.421143 
	C337.102875,341.297485 340.458252,341.467712 343.708923,340.963196 
	C346.650513,340.506653 349.672180,339.695923 352.309692,338.355133 
	C356.187134,336.384064 364.271790,336.483368 367.497650,339.107635 
	C371.411957,342.291901 374.189789,349.785980 371.556152,353.726685 
	C369.146637,357.332031 365.120331,360.082764 361.339722,362.471252 
	C358.529663,364.246490 354.973175,364.840210 351.373169,365.625244 
	C350.994843,364.843506 350.992462,364.396790 350.990112,363.950043 
z"/>
<path fill="#FFE3D1" opacity="1.000000" stroke="none" 
	d="
M285.310303,358.904053 
	C285.276428,356.638092 285.920105,354.359619 285.936096,352.076752 
	C286.031647,338.425568 286.019073,324.773163 285.943878,311.121735 
	C285.932159,308.994537 285.413666,306.870117 285.144592,304.316895 
	C286.385437,306.343414 288.654877,308.792847 288.665741,311.252289 
	C288.730896,326.006561 288.326355,340.764587 287.900391,355.516174 
	C287.867310,356.660858 286.464142,357.765991 285.310303,358.904053 
z"/>
<path fill="#FFF3EB" opacity="1.000000" stroke="none" 
	d="
M202.078735,333.624725 
	C201.596497,334.178223 201.185104,334.370483 200.587280,334.346497 
	C200.406845,328.546814 200.338425,322.962006 200.444702,317.380493 
	C200.516830,313.593018 200.834198,309.810150 201.319885,306.036316 
	C201.782990,306.035492 201.968079,306.023529 202.153198,306.011597 
	C203.099594,307.174561 204.809113,308.302795 204.863953,309.506409 
	C205.142441,315.618286 205.207123,321.761902 204.861237,327.866882 
	C204.756744,329.711060 203.096954,331.467072 202.078735,333.624725 
z"/>
<path fill="#FFC39C" opacity="1.000000" stroke="none" 
	d="
M252.981628,294.918457 
	C254.505783,295.390015 256.911316,295.423126 257.401733,296.408936 
	C259.539856,300.707153 261.536407,305.183136 262.643616,309.819275 
	C262.962189,311.153107 260.280945,314.578247 258.723328,314.749054 
	C251.730484,315.515961 244.646927,315.455750 237.524475,315.112976 
	C242.809433,314.007233 248.177216,313.572113 253.515701,312.903107 
	C255.118469,312.702240 256.639557,311.849579 258.198059,311.295471 
	C258.637512,309.535553 259.579254,307.716339 259.380554,306.031647 
	C259.165344,304.206970 257.886719,302.507660 257.009216,300.046570 
	C255.624908,297.865753 254.303268,296.392120 252.981628,294.918457 
z"/>
<path fill="#FFBA8D" opacity="1.000000" stroke="none" 
	d="
M333.469635,341.349365 
	C340.446106,344.742035 346.951782,343.370392 353.410736,340.786987 
	C354.743408,340.253967 356.044006,339.640808 357.655029,339.450073 
	C353.590790,345.208710 339.475433,348.111877 333.506500,344.955231 
	C328.117004,342.105042 321.929077,339.983185 323.152039,331.965332 
	C323.624512,331.969971 323.813171,331.985596 324.001862,332.001221 
	C324.275848,332.487427 324.549835,332.973633 324.929291,334.079285 
	C327.298859,336.844818 329.562958,338.990936 331.827057,341.137054 
	C332.266754,341.183899 332.706482,341.230713 333.469635,341.349365 
z"/>
<path fill="#FFEBDD" opacity="1.000000" stroke="none" 
	d="
M344.010071,296.502441 
	C347.228363,297.115753 350.644257,297.778839 353.766174,299.124084 
	C358.114136,300.997650 362.214020,301.455292 365.589844,297.748444 
	C368.659332,294.377930 369.818268,290.276550 368.105042,285.345764 
	C371.171295,284.838806 371.989288,286.533417 372.013489,289.324310 
	C372.102295,299.568329 362.208771,305.430481 352.919464,300.680786 
	C351.556274,299.983795 349.601807,300.493256 348.165405,299.875763 
	C346.649841,299.224304 345.427155,297.891663 344.010071,296.502441 
z"/>
<path fill="#FFC39C" opacity="1.000000" stroke="none" 
	d="
M237.764465,275.188477 
	C235.226425,276.577240 232.257797,277.762421 229.357208,279.095642 
	C226.236038,280.530243 221.771088,281.351044 220.456070,283.810425 
	C218.874969,286.767395 219.939514,291.171143 220.000870,294.946198 
	C220.012741,295.676697 220.679199,296.396515 220.726532,297.525696 
	C219.352997,297.557037 218.296661,297.184021 217.240326,296.810974 
	C217.139526,295.817810 217.038712,294.824677 216.958817,293.005646 
	C216.959229,289.766052 216.938736,287.352295 216.918228,284.938568 
	C217.744247,283.716522 218.570267,282.494476 220.049408,281.106628 
	C225.134811,278.955902 229.567093,276.970978 233.999390,274.986053 
	C235.120865,275.007385 236.242340,275.028717 237.764465,275.188477 
z"/>
<path fill="#FFE7D8" opacity="1.000000" stroke="none" 
	d="
M148.166077,393.729431 
	C147.545288,391.440155 147.038589,388.887848 147.008926,386.329987 
	C146.907669,377.598755 146.935547,368.865204 147.030518,360.133789 
	C147.041245,359.148010 147.791733,358.170288 148.199188,357.188812 
	C148.822220,357.772858 149.445236,358.356903 150.123276,359.294556 
	C149.776459,361.514313 149.076492,363.371979 149.023056,365.248016 
	C148.755310,374.650665 148.656799,384.058075 148.166077,393.729431 
z"/>
<path fill="#FFC39C" opacity="1.000000" stroke="none" 
	d="
M228.207413,298.889191 
	C228.482758,297.829254 228.898163,296.357361 229.758347,296.020172 
	C235.857864,293.629395 241.986618,291.063049 248.778091,292.245728 
	C249.584625,292.386200 250.233459,293.432098 250.584900,294.507446 
	C245.809586,295.302948 241.404800,295.649292 237.000000,295.995605 
	C236.574844,296.018890 236.149673,296.042145 235.046234,296.053528 
	C232.913452,297.045013 231.458954,298.048401 230.004440,299.051758 
	C229.520737,299.035309 229.037033,299.018890 228.207413,298.889191 
z"/>
<path fill="#FFBA8D" opacity="1.000000" stroke="none" 
	d="
M323.706573,310.038971 
	C323.941681,316.183289 324.176788,322.327637 323.699585,328.631409 
	C322.799377,322.747559 322.599091,316.704529 322.478363,310.659912 
	C322.474396,310.461182 323.278900,310.246307 323.706573,310.038971 
z"/>
<path fill="#FFE3D1" opacity="1.000000" stroke="none" 
	d="
M257.719086,311.197510 
	C256.639557,311.849579 255.118469,312.702240 253.515701,312.903107 
	C248.177216,313.572113 242.809433,314.007233 237.202240,314.857544 
	C236.209656,315.172119 235.467682,315.161133 234.361679,315.073242 
	C235.772339,313.677582 237.468277,311.371582 239.336319,311.222504 
	C245.269745,310.749054 251.267334,311.079681 257.719086,311.197510 
z"/>
<path fill="#FF9B5B" opacity="1.000000" stroke="none" 
	d="
M323.804688,309.712555 
	C323.278900,310.246307 322.474396,310.461182 322.478363,310.659912 
	C322.599091,316.704529 322.799377,322.747559 323.361511,328.877075 
	C323.830627,329.721222 323.925537,330.479126 324.011169,331.619110 
	C323.813171,331.985596 323.624512,331.969971 322.773010,331.913635 
	C321.425415,331.031128 320.171997,330.205780 320.147034,329.344849 
	C319.968903,323.202972 319.916290,317.048828 320.160034,310.911957 
	C320.199646,309.915771 321.906036,308.985840 322.842010,308.025269 
	C323.025635,308.036438 323.209229,308.047607 323.667999,308.044708 
	C323.929718,308.482483 323.916290,308.934296 323.804688,309.712555 
z"/>
<path fill="#FFE3D1" opacity="1.000000" stroke="none" 
	d="
M224.058441,363.361694 
	C227.374054,363.665314 230.747238,364.939270 234.095093,364.875885 
	C238.465256,364.793152 242.815369,363.651428 247.569977,362.963959 
	C247.380585,363.881927 246.803436,365.593567 246.208893,365.599640 
	C239.195236,365.671173 232.178268,365.511932 225.165497,365.302185 
	C224.796646,365.291138 224.457642,364.281830 224.058441,363.361694 
z"/>
<path fill="#FFC39C" opacity="1.000000" stroke="none" 
	d="
M221.093979,321.092896 
	C217.389221,325.657501 213.950714,330.317383 213.534195,336.541901 
	C213.473358,337.451263 212.225189,338.281158 211.242706,339.252136 
	C210.709946,337.597137 210.460892,335.837830 210.549057,333.522186 
	C211.585220,331.618408 212.284164,330.270996 212.983124,328.923584 
	C213.313232,328.166260 213.643341,327.408905 214.298203,326.192993 
	C216.087784,324.164429 217.552612,322.594360 219.017441,321.024323 
	C219.017441,321.024323 219.003128,321.000610 219.358276,321.018860 
	C220.173599,321.055695 220.633789,321.074310 221.093979,321.092896 
z"/>
<path fill="#FFC39C" opacity="1.000000" stroke="none" 
	d="
M210.681152,341.051971 
	C212.093399,343.056274 213.311615,345.430878 214.384308,347.869507 
	C215.615768,350.669159 216.718262,353.525513 217.553101,356.675842 
	C216.148941,356.329987 215.068481,355.665558 213.988037,355.001160 
	C213.810593,354.189087 213.633163,353.376984 213.120407,352.023621 
	C211.958374,350.252014 211.131683,349.021698 210.304993,347.791382 
	C210.344254,345.677765 210.383530,343.564178 210.681152,341.051971 
z"/>
<path fill="#FFD8BF" opacity="1.000000" stroke="none" 
	d="
M299.883118,310.936157 
	C299.911224,316.997986 299.939301,323.059845 299.608826,329.575928 
	C298.823212,330.022156 298.396240,330.014099 297.969238,330.006042 
	C297.673309,323.987366 297.377350,317.968719 297.442566,311.495361 
	C298.496826,311.005829 299.189972,310.971008 299.883118,310.936157 
z"/>
<path fill="#FFEBDD" opacity="1.000000" stroke="none" 
	d="
M325.408997,305.988556 
	C326.078613,300.609100 331.684235,296.354309 338.659424,296.096680 
	C338.577087,296.973175 338.174194,298.404388 337.593231,298.480743 
	C332.454163,299.156281 329.163727,302.618530 325.408997,305.988556 
z"/>
<path fill="#FFE3D1" opacity="1.000000" stroke="none" 
	d="
M237.295380,296.288086 
	C241.404800,295.649292 245.809586,295.302948 250.688751,294.877930 
	C251.566895,294.827271 251.970688,294.855316 252.678055,294.900940 
	C254.303268,296.392120 255.624908,297.865753 256.958801,299.681854 
	C251.179581,295.113617 244.027222,297.861603 237.295380,296.288086 
z"/>
<path fill="#FFE3D1" opacity="1.000000" stroke="none" 
	d="
M251.137726,362.757507 
	C253.360474,360.237549 255.778549,357.558502 258.645996,355.507782 
	C259.340546,355.011017 261.517639,356.587311 263.013062,357.599121 
	C257.725922,356.155701 255.548309,361.719299 251.137726,362.757507 
z"/>
<path fill="#FFE3D1" opacity="1.000000" stroke="none" 
	d="
M233.750977,274.714478 
	C229.567093,276.970978 225.134811,278.955902 220.340454,280.957642 
	C222.056885,277.140045 228.638443,273.961487 233.750977,274.714478 
z"/>
<path fill="#FFE3D1" opacity="1.000000" stroke="none" 
	d="
M217.198639,297.190796 
	C218.296661,297.184021 219.352997,297.557037 220.753754,297.918335 
	C223.129822,298.231018 225.161469,298.555481 227.603439,298.950500 
	C227.099884,299.989044 225.791183,301.945465 225.336517,301.763824 
	C222.503693,300.632263 219.862000,299.022095 217.198639,297.190796 
z"/>
<path fill="#FFEBDD" opacity="1.000000" stroke="none" 
	d="
M299.914581,310.492126 
	C299.189972,310.971008 298.496826,311.005829 297.458618,311.061768 
	C297.791595,308.089020 298.469604,305.095184 299.520477,302.029968 
	C299.910919,304.655060 299.928497,307.351562 299.914581,310.492126 
z"/>
<path fill="#FFCFB0" opacity="1.000000" stroke="none" 
	d="
M202.096863,305.587219 
	C201.968079,306.023529 201.782990,306.035492 201.228455,305.700348 
	C200.552597,304.250885 200.246170,303.148468 199.967346,301.689941 
	C199.004852,299.882812 198.014740,298.431793 196.996735,296.586060 
	C196.957550,295.137207 196.946274,294.083130 196.934998,293.029022 
	C197.128586,293.016541 197.322159,293.004089 197.806824,292.967865 
	C199.412109,297.017029 200.726334,301.089905 202.096863,305.587219 
z"/>
<path fill="#FFC39C" opacity="1.000000" stroke="none" 
	d="
M233.719986,315.120056 
	C230.375748,316.849823 226.612961,318.465729 222.566040,319.810913 
	C222.843246,319.013763 223.404587,318.487335 223.965912,317.960907 
	C223.965927,317.960907 223.994797,317.990936 224.320908,317.971039 
	C226.098312,316.973816 227.549606,315.996490 229.000916,315.019165 
	C230.434418,315.014832 231.867935,315.010498 233.719986,315.120056 
z"/>
<path fill="#FFE3D1" opacity="1.000000" stroke="none" 
	d="
M271.787537,279.822083 
	C267.977722,278.658966 264.195068,277.128143 260.205322,275.321564 
	C260.846497,274.733093 261.951935,273.913147 262.500641,274.191345 
	C265.678009,275.802307 268.724152,277.672150 271.787537,279.822083 
z"/>
<path fill="#FFDCC5" opacity="1.000000" stroke="none" 
	d="
M323.809937,275.222137 
	C320.754456,277.238525 317.311890,279.158600 313.505310,281.098267 
	C314.899658,276.257111 320.015137,277.156647 323.809937,275.222137 
z"/>
<path fill="#FFDCC5" opacity="1.000000" stroke="none" 
	d="
M132.114853,276.253296 
	C129.383438,276.887726 126.652023,277.522186 123.535919,278.165771 
	C125.871773,273.540314 130.314209,274.404388 134.626862,275.138733 
	C134.429642,275.870758 134.154648,276.069672 133.587372,276.215393 
	C132.901703,276.192566 132.508270,276.222931 132.114853,276.253296 
z"/>
<path fill="#FFF3EB" opacity="1.000000" stroke="none" 
	d="
M73.914719,226.608246 
	C70.639923,227.013397 67.280281,227.025650 63.463303,227.025818 
	C66.358200,223.280502 70.093567,224.741531 73.914719,226.608246 
z"/>
<path fill="#FFDCC5" opacity="1.000000" stroke="none" 
	d="
M331.835266,340.774536 
	C329.562958,338.990936 327.298859,336.844818 325.024780,334.342285 
	C327.291016,336.127899 329.567261,338.269958 331.835266,340.774536 
z"/>
<path fill="#FFE3D1" opacity="1.000000" stroke="none" 
	d="
M249.979721,274.560455 
	C247.634674,274.998352 245.241989,275.068146 242.410767,275.032471 
	C244.224655,271.105743 246.577591,270.888580 249.979721,274.560455 
z"/>
<path fill="#FFE3D1" opacity="1.000000" stroke="none" 
	d="
M216.554199,285.009186 
	C216.938736,287.352295 216.959229,289.766052 216.929871,292.632233 
	C213.093292,290.689911 212.893738,288.374237 216.554199,285.009186 
z"/>
<path fill="#FFE3D1" opacity="1.000000" stroke="none" 
	d="
M270.046692,363.382568 
	C272.368622,362.997314 274.746918,362.982941 277.570801,362.994354 
	C275.804749,366.914429 273.374817,367.139587 270.046692,363.382568 
z"/>
<path fill="#FFB27F" opacity="1.000000" stroke="none" 
	d="
M133.879639,276.268616 
	C134.154648,276.069672 134.429642,275.870758 134.840881,275.458984 
	C135.376816,275.248810 135.776489,275.251526 136.598175,275.577820 
	C138.367752,276.575348 139.715302,277.249329 141.062866,277.923279 
	C141.062866,277.923279 141.056549,277.940338 141.068192,277.940155 
	C141.054932,278.389221 141.030029,278.838501 140.643066,279.646240 
	C138.147202,278.759399 136.013428,277.514008 133.879639,276.268616 
z"/>
<path fill="#FFE3D1" opacity="1.000000" stroke="none" 
	d="
M213.742722,355.194305 
	C215.068481,355.665558 216.148941,356.329987 217.540558,357.043762 
	C217.851715,357.093109 217.990738,357.481598 218.050552,357.678406 
	C218.343002,358.387329 218.575623,358.899475 218.932480,359.666992 
	C217.203613,358.410706 215.350510,356.899109 213.742722,355.194305 
z"/>
<path fill="#FFEBDD" opacity="1.000000" stroke="none" 
	d="
M297.706543,330.229553 
	C298.396240,330.014099 298.823212,330.022156 299.567871,330.046539 
	C299.914917,331.457977 299.944275,332.853027 299.881287,334.660858 
	C299.007263,333.533447 298.225586,331.993256 297.706543,330.229553 
z"/>
<path fill="#FFE3D1" opacity="1.000000" stroke="none" 
	d="
M218.653870,321.010681 
	C217.552612,322.594360 216.087784,324.164429 214.330017,325.868591 
	C213.069427,322.307312 215.791794,321.747284 218.653870,321.010681 
z"/>
<path fill="#FFE3D1" opacity="1.000000" stroke="none" 
	d="
M230.204926,299.286865 
	C231.458954,298.048401 232.913452,297.045013 234.728271,296.083557 
	C233.527496,297.257629 231.966446,298.389771 230.204926,299.286865 
z"/>
<path fill="#FFE3D1" opacity="1.000000" stroke="none" 
	d="
M228.797852,314.757812 
	C227.549606,315.996490 226.098312,316.973816 224.304810,317.952759 
	C225.506668,316.801727 227.050720,315.649078 228.797852,314.757812 
z"/>
<path fill="#FFE3D1" opacity="1.000000" stroke="none" 
	d="
M212.763947,328.687683 
	C212.284164,330.270996 211.585220,331.618408 210.582428,333.080780 
	C211.033981,331.614410 211.789398,330.033081 212.763947,328.687683 
z"/>
<path fill="#FFE3D1" opacity="1.000000" stroke="none" 
	d="
M210.212006,348.170776 
	C211.131683,349.021698 211.958374,350.252014 212.882935,351.820984 
	C209.362076,353.069244 210.206818,350.440002 210.212006,348.170776 
z"/>
<path fill="#FFDCC5" opacity="1.000000" stroke="none" 
	d="
M358.994141,277.574585 
	C357.394958,277.258331 355.724792,276.593811 353.932526,275.615845 
	C355.514679,275.943695 357.218933,276.585022 358.994141,277.574585 
z"/>
<path fill="#FFF3EB" opacity="1.000000" stroke="none" 
	d="
M195.341049,351.973755 
	C195.801666,350.760468 196.596893,349.517487 197.690491,348.135620 
	C197.217804,349.312500 196.446732,350.628265 195.341049,351.973755 
z"/>
<path fill="#FFDCC5" opacity="1.000000" stroke="none" 
	d="
M141.038666,277.538635 
	C139.715302,277.249329 138.367752,276.575348 136.897034,275.599915 
	C138.187408,275.916992 139.600937,276.535492 141.038666,277.538635 
z"/>
<path fill="#FFDCC5" opacity="1.000000" stroke="none" 
	d="
M311.859863,281.253479 
	C311.052307,282.546722 309.891907,283.764221 308.398315,285.020020 
	C309.212463,283.764740 310.359741,282.471252 311.859863,281.253479 
z"/>
<path fill="#FFE3D1" opacity="1.000000" stroke="none" 
	d="
M223.587067,317.957123 
	C223.404587,318.487335 222.843246,319.013763 222.169220,319.813293 
	C221.762909,320.221771 221.518753,320.418549 221.209015,320.884796 
	C220.633789,321.074310 220.173599,321.055695 219.368576,321.030823 
	C220.418579,320.000824 221.813416,318.977081 223.587067,317.957123 
z"/>
<path fill="#FFEBDD" opacity="1.000000" stroke="none" 
	d="
M108.213669,312.804565 
	C107.309937,311.887970 106.676773,310.774078 106.023865,309.328156 
	C106.830826,310.199829 107.657532,311.403534 108.213669,312.804565 
z"/>
<path fill="#FFD8BF" opacity="1.000000" stroke="none" 
	d="
M350.624847,363.959961 
	C350.992462,364.396790 350.994843,364.843506 350.995819,365.624115 
	C349.878418,365.945312 348.762360,365.932648 347.239197,365.797241 
	C347.974548,365.106323 349.117065,364.538116 350.624847,363.959961 
z"/>
<path fill="#FFEBDD" opacity="1.000000" stroke="none" 
	d="
M106.343384,339.983307 
	C106.470322,339.106934 106.919556,338.195496 107.652046,337.140076 
	C107.512100,337.980133 107.088890,338.964172 106.343384,339.983307 
z"/>
<path fill="#FFE3D1" opacity="1.000000" stroke="none" 
	d="
M263.249512,360.137329 
	C264.222137,360.551849 265.129791,361.328369 266.127808,362.401093 
	C265.206970,361.964630 264.195740,361.232025 263.249512,360.137329 
z"/>
<path fill="#FFE3D1" opacity="1.000000" stroke="none" 
	d="
M285.074463,299.835022 
	C284.506256,299.222534 284.228973,298.445984 283.968323,297.341125 
	C284.445099,297.898834 284.905273,298.784882 285.074463,299.835022 
z"/>
<path fill="#FFF3EB" opacity="1.000000" stroke="none" 
	d="
M192.325989,354.961548 
	C192.451233,354.355072 192.898666,353.708130 193.668274,353.022095 
	C193.543030,353.629028 193.095612,354.275055 192.325989,354.961548 
z"/>
<path fill="#FFF3EB" opacity="1.000000" stroke="none" 
	d="
M185.285400,361.949310 
	C185.417908,361.334442 185.879211,360.689056 186.662994,360.005432 
	C186.528381,360.617737 186.071274,361.268250 185.285400,361.949310 
z"/>
<path fill="#FFE7D8" opacity="1.000000" stroke="none" 
	d="
M146.292877,397.932434 
	C146.387726,397.311768 146.815857,396.667480 147.547333,395.954834 
	C147.442490,396.560608 147.034317,397.234741 146.292877,397.932434 
z"/>
<path fill="#FF9956" opacity="1.000000" stroke="none" 
	d="
M496.265381,299.083069 
	C500.057678,312.184265 500.510590,325.159668 496.694672,337.703613 
	C494.014709,346.513397 488.067596,353.884827 479.425568,357.944946 
	C473.959625,360.512939 467.996277,363.175140 462.145844,363.450043 
	C456.197601,363.729492 449.985535,361.540314 444.121063,359.694702 
	C435.962921,357.127258 430.718475,350.784241 426.371246,343.817841 
	C424.569916,340.931213 422.578339,337.585083 422.417358,334.360840 
	C421.921631,324.432556 420.974854,314.239136 422.643372,304.569824 
	C424.378296,294.515778 430.700409,286.241913 440.195068,281.268494 
	C450.194702,276.030548 460.525604,273.921936 471.686127,277.703522 
	C482.749329,281.452087 490.958191,288.251343 496.265381,299.083069 
M452.344513,296.509033 
	C447.196320,299.774597 443.427002,304.020782 443.248322,310.443909 
	C443.081543,316.438354 442.993164,322.451172 443.265656,328.437897 
	C443.666992,337.255463 452.234283,345.474335 460.539398,344.882782 
	C471.076416,344.132202 476.104706,336.245239 477.719452,326.735992 
	C478.462128,322.362244 477.901245,317.757935 477.843475,313.259308 
	C477.707703,302.688110 467.496765,290.557526 452.344513,296.509033 
z"/>
<path fill="#FFF3EB" opacity="1.000000" stroke="none" 
	d="
M243.426575,347.637756 
	C238.548721,346.037323 235.038376,343.363068 234.342514,338.412292 
	C233.536667,332.679016 237.386932,327.677460 244.202408,326.269012 
	C248.867615,325.304962 253.775238,325.219910 258.559418,325.340271 
	C259.700928,325.368958 261.631561,327.711670 261.754730,329.116669 
	C262.607147,338.840454 255.167786,346.370697 243.426575,347.637756 
z"/>
<path fill="#02B6AE" opacity="1.000000" stroke="none" 
	d="
M201.536255,97.570282 
	C209.021606,89.664017 217.685013,83.614624 227.475784,80.475616 
	C240.166550,76.406860 253.156006,75.350464 266.850433,78.387329 
	C282.308350,81.815262 294.332794,89.574524 303.836670,101.381744 
	C308.093781,106.670631 310.281219,113.620003 313.442078,119.798355 
	C316.175110,125.140388 316.518066,130.828339 316.384216,136.709015 
	C316.165161,146.334656 312.398071,154.673965 308.027771,162.983292 
	C299.674438,178.865631 286.252808,189.412689 271.516296,198.693115 
	C267.093414,201.478485 262.976959,204.951553 258.235748,206.974335 
	C253.390350,209.041565 248.112579,209.513184 243.082413,206.124756 
	C235.443375,200.978928 227.060074,196.829254 219.879608,191.137772 
	C210.081009,183.371063 201.354752,174.530289 194.511505,163.671890 
	C189.782028,156.167480 189.295685,147.676315 186.035217,139.946350 
	C185.552521,138.801971 185.748230,137.295654 185.876740,135.980881 
	C187.266876,121.758530 191.125443,108.520439 201.536255,97.570282 
M259.502930,149.831619 
	C260.255554,148.822464 261.008179,147.813293 261.877838,146.878952 
	C261.877838,146.878952 261.805420,146.760422 262.535553,146.852097 
	C265.234406,145.072220 269.033203,144.319763 269.303009,139.783936 
	C269.303009,139.783936 269.670471,139.704437 270.405182,139.860825 
	C272.931946,137.234528 275.458710,134.608246 278.000000,132.000000 
	C278.000000,132.000000 277.982117,131.985016 278.714905,132.014328 
	C281.936188,129.603973 285.490540,127.520805 288.277313,124.683655 
	C290.669464,122.248253 288.752167,116.343796 285.364502,115.118736 
	C285.364502,115.118736 285.017761,114.968681 285.008972,114.169518 
	C283.825378,113.125336 282.778290,111.428314 281.435089,111.147446 
	C274.822998,109.764809 270.894287,113.630959 267.158386,119.038933 
	C265.775330,120.697998 264.392242,122.357063 262.679535,124.185623 
	C262.679535,124.185623 262.337494,124.328461 261.625885,124.179192 
	C256.820251,128.147903 251.994827,132.093369 247.248596,136.131882 
	C246.890533,136.436554 247.096054,137.403564 246.706009,138.222092 
	C246.706009,138.222092 246.344070,138.297363 245.598236,138.155045 
	C244.786789,139.173828 243.975357,140.192612 242.518250,141.305481 
	C242.305939,141.258316 242.093628,141.211136 241.895248,140.437622 
	C240.867889,139.698898 239.840515,138.960190 238.926331,138.071091 
	C238.926331,138.071091 238.779877,138.189316 238.857986,137.448669 
	C237.573990,136.630554 236.289993,135.812454 235.000000,135.000000 
	C235.000000,135.000000 235.005524,134.993011 235.017731,134.244339 
	C232.217712,132.280548 229.417709,130.316742 225.910324,128.337784 
	C224.731659,128.342377 223.552979,128.346985 221.587570,128.134277 
	C215.310181,129.804321 212.632324,137.463333 216.803574,142.034424 
	C218.829132,144.254166 220.976135,146.392029 223.275528,148.319595 
	C224.283798,149.164841 225.810577,149.391602 227.000000,150.000000 
	C227.000000,150.000000 227.101151,149.897919 227.032272,150.643478 
	C229.564255,156.145935 234.536026,158.518463 239.521637,161.331726 
	C243.022064,163.306961 244.466431,162.829437 246.539398,159.671631 
	C246.890244,159.646179 247.241089,159.620728 248.372849,159.830627 
	C250.488144,157.776154 252.603424,155.721664 254.956757,153.278229 
	C255.149597,153.035110 255.386703,152.848129 256.414185,152.849762 
	C257.174957,151.823532 257.935730,150.797318 258.752655,149.751892 
	C258.752655,149.751892 258.778259,149.698303 259.502930,149.831619 
z"/>
<path fill="#FF9B5B" opacity="1.000000" stroke="none" 
	d="
M400.421875,360.761230 
	C396.804962,361.266510 393.495514,362.022705 390.271973,361.752777 
	C386.125702,361.405640 382.990906,357.085968 382.985260,352.535309 
	C382.958191,330.740479 383.028473,308.945343 382.938599,287.150848 
	C382.905975,279.239502 386.527893,277.357147 393.749237,276.280487 
	C399.739105,275.387421 404.948151,280.863678 404.958984,287.089447 
	C404.996094,308.385132 405.148193,329.683868 404.785309,350.973419 
	C404.730469,354.189575 402.169312,357.362946 400.421875,360.761230 
z"/>
<path fill="#FF9652" opacity="1.000000" stroke="none" 
	d="
M322.896301,307.614014 
	C321.906036,308.985840 320.199646,309.915771 320.160034,310.911957 
	C319.916290,317.048828 319.968903,323.202972 320.147034,329.344849 
	C320.171997,330.205780 321.425415,331.031128 322.489227,331.924622 
	C321.929077,339.983185 328.117004,342.105042 333.506500,344.955231 
	C339.475433,348.111877 353.590790,345.208710 358.035950,339.498657 
	C359.584137,339.265015 361.047028,339.368256 362.808899,340.067261 
	C363.216827,340.969666 363.234528,341.380585 363.448212,341.567749 
	C369.793732,347.126099 367.748474,355.672058 359.527802,358.182098 
	C358.174255,358.595398 357.182953,360.195038 356.024261,361.246429 
	C355.608582,361.244476 355.192871,361.242493 354.469208,361.287811 
	C350.538574,361.487885 346.913330,361.595062 343.293732,361.801544 
	C329.310760,362.598969 315.892090,361.363892 307.692749,347.999359 
	C304.824341,343.323975 302.931335,337.625305 302.190552,332.176697 
	C301.256805,325.308899 302.461487,318.172974 301.831024,311.235657 
	C301.011108,302.213837 304.842682,294.647369 309.569275,288.041504 
	C312.374420,284.121002 318.482910,282.602234 323.035095,279.884583 
	C329.733551,275.885620 337.128357,276.582764 344.306824,277.061218 
	C351.076721,277.512451 357.695038,279.276367 363.187836,283.722778 
	C366.301819,286.243530 367.240570,292.068756 365.073792,294.860535 
	C362.162018,298.612152 357.638702,299.393799 353.833008,296.307983 
	C349.354584,292.676697 344.223938,294.715210 339.417694,294.014771 
	C334.124939,293.243408 329.838776,295.265930 326.668701,299.078949 
	C324.830963,301.289429 324.151398,304.462769 322.896301,307.614014 
z"/>
<path fill="#FF9753" opacity="1.000000" stroke="none" 
	d="
M133.587387,276.215393 
	C136.013428,277.514008 138.147202,278.759399 140.664795,279.982971 
	C142.701904,281.934174 144.256638,285.369354 146.034836,285.489227 
	C148.007050,285.622192 150.192047,282.738831 152.269196,281.149017 
	C159.292801,275.773224 167.614899,274.506683 175.656006,276.370331 
	C183.143982,278.105713 189.339325,283.133392 193.889481,289.687531 
	C194.628326,290.751770 195.519592,291.710175 196.637695,292.873291 
	C196.946274,294.083130 196.957550,295.137207 196.987335,296.953827 
	C197.983826,299.159576 198.961777,300.602844 199.939743,302.046082 
	C200.246170,303.148468 200.552597,304.250885 200.950470,305.689270 
	C200.834198,309.810150 200.516830,313.593018 200.444702,317.380493 
	C200.338425,322.962006 200.406845,328.546814 200.448425,334.529907 
	C200.373474,335.083344 200.250946,335.237152 199.696823,335.721832 
	C198.816864,337.366791 198.368500,338.680878 197.920120,339.994965 
	C193.406616,350.363342 187.373215,359.168243 175.473572,362.028351 
	C163.298752,364.954559 154.291977,359.034851 145.235840,349.988861 
	C144.683578,353.112885 144.110748,354.887390 144.097549,356.666046 
	C144.012543,368.126709 144.056076,379.588287 144.045029,391.049561 
	C144.037170,399.213928 142.018326,401.287354 133.678818,401.108856 
	C130.845703,401.048218 128.028244,400.256134 125.091011,399.410156 
	C124.974625,361.938416 125.025238,324.854523 124.898155,287.771271 
	C124.882301,283.146667 124.759155,279.073364 130.749237,278.423279 
	C131.195496,278.374847 131.546249,277.446259 132.028137,276.590057 
	C132.508270,276.222931 132.901703,276.192566 133.587387,276.215393 
M171.428833,296.955811 
	C167.533524,293.916107 157.013519,292.731995 153.566208,295.098572 
	C146.760391,299.770813 142.354523,305.731903 143.023712,314.564636 
	C143.324768,318.538483 143.312027,322.572083 143.011551,326.546021 
	C142.675018,330.996826 144.107498,334.497711 146.924118,337.903687 
	C152.100449,344.163116 160.682343,347.779083 166.861542,345.802490 
	C173.100128,343.806946 178.939774,334.848969 178.988571,327.127991 
	C179.023315,321.632843 178.641479,316.107849 179.093262,310.649780 
	C179.603134,304.490051 176.295929,300.799896 171.428833,296.955811 
z"/>
<path fill="#FFB27F" opacity="1.000000" stroke="none" 
	d="
M198.208862,339.822144 
	C198.368500,338.680878 198.816864,337.366791 199.599640,336.000305 
	C199.455215,337.181732 198.976395,338.415558 198.208862,339.822144 
z"/>
<path fill="#FF9753" opacity="1.000000" stroke="none" 
	d="
M381.237305,246.858734 
	C381.211823,245.870041 381.186310,244.881332 381.552368,243.466431 
	C383.013519,241.959137 384.342072,241.033905 385.104065,239.767685 
	C387.378082,235.989136 391.064667,235.251572 394.631165,236.164383 
	C397.568573,236.916183 401.609283,238.635147 402.473877,240.935486 
	C403.684662,244.156967 404.737915,248.598557 400.943207,251.895050 
	C397.558289,254.835510 390.538483,255.006363 387.160797,251.928284 
	C385.240845,250.178574 383.215302,248.544739 381.237305,246.858734 
z"/>
<path fill="#FFBA8D" opacity="1.000000" stroke="none" 
	d="
M381.175598,247.220123 
	C383.215302,248.544739 385.240845,250.178574 387.160797,251.928284 
	C390.538483,255.006363 397.558289,254.835510 400.943207,251.895050 
	C404.737915,248.598557 403.684662,244.156967 402.473877,240.935486 
	C401.609283,238.635147 397.568573,236.916183 394.631165,236.164383 
	C391.064667,235.251572 387.378082,235.989136 385.104065,239.767685 
	C384.342072,241.033905 383.013519,241.959137 381.598236,243.097809 
	C381.545868,237.300705 386.032867,235.165100 390.458435,233.432388 
	C395.638885,231.404114 404.113861,235.841461 406.589417,241.390228 
	C408.223053,245.051880 405.945831,252.385086 401.681854,254.439774 
	C395.703583,257.320496 389.517059,257.188904 383.538940,252.928253 
	C383.187714,252.865341 383.038239,252.967255 383.092102,252.891541 
	C382.468597,251.071060 381.791260,249.326279 381.175598,247.220123 
z"/>
<path fill="#FFBA8D" opacity="1.000000" stroke="none" 
	d="
M356.257446,361.446472 
	C357.182953,360.195038 358.174255,358.595398 359.527802,358.182098 
	C367.748474,355.672058 369.793732,347.126099 363.448212,341.567749 
	C363.234528,341.380585 363.216827,340.969666 363.095490,340.295197 
	C370.380737,342.728729 372.421326,350.311676 366.814026,355.485687 
	C363.931915,358.145142 359.966492,359.630585 356.257446,361.446472 
z"/>
<path fill="#FFB27F" opacity="1.000000" stroke="none" 
	d="
M199.967346,301.689941 
	C198.961777,300.602844 197.983826,299.159576 197.015244,297.348572 
	C198.014740,298.431793 199.004852,299.882812 199.967346,301.689941 
z"/>
<path fill="#FFD8BF" opacity="1.000000" stroke="none" 
	d="
M452.683533,296.300171 
	C467.496765,290.557526 477.707703,302.688110 477.843475,313.259308 
	C477.901245,317.757935 478.462128,322.362244 477.719452,326.735992 
	C476.104706,336.245239 471.076416,344.132202 460.539398,344.882782 
	C452.234283,345.474335 443.666992,337.255463 443.265656,328.437897 
	C442.993164,322.451172 443.081543,316.438354 443.248322,310.443909 
	C443.427002,304.020782 447.196320,299.774597 452.683533,296.300171 
M473.091766,313.598907 
	C473.085876,311.769806 473.161072,309.936127 473.058350,308.112488 
	C472.783234,303.228973 464.386963,296.294403 459.679688,297.006287 
	C453.740295,297.904480 445.417023,306.566650 445.090271,312.582825 
	C444.675720,320.214813 444.587677,327.955261 448.856750,334.704926 
	C450.419617,337.175903 452.855835,340.072601 455.428162,340.752258 
	C464.933685,343.263916 474.537048,337.241119 473.170563,326.534912 
	C472.669434,322.608154 473.091309,318.563629 473.091766,313.598907 
z"/>
<path fill="#9EE3E0" opacity="1.000000" stroke="none" 
	d="
M269.670471,139.704437 
	C269.670471,139.704437 269.303009,139.783936 268.827148,140.000244 
	C266.169342,142.397827 263.987396,144.579132 261.805420,146.760437 
	C261.805420,146.760422 261.877838,146.878952 261.506927,146.899811 
	C260.350098,147.846558 259.564178,148.772430 258.778259,149.698303 
	C258.778259,149.698303 258.752655,149.751892 258.413086,149.819580 
	C257.271698,150.830627 256.469879,151.773956 255.668076,152.717300 
	C255.386703,152.848129 255.149597,153.035110 254.515213,153.572861 
	C251.913086,155.776749 249.752518,157.686020 247.591934,159.595276 
	C247.241089,159.620728 246.890244,159.646179 246.016968,159.519043 
	C241.877335,158.285095 238.038254,157.648132 234.710678,155.986725 
	C231.869171,154.567978 229.615082,151.972748 227.101151,149.897919 
	C227.101151,149.897919 227.000000,150.000000 227.001114,149.613663 
	C224.963669,146.861282 222.925110,144.495239 221.250763,142.096222 
	C226.011658,145.680923 230.740585,148.969681 234.725342,152.995087 
	C240.367615,158.694885 243.270294,159.236206 249.414093,154.174393 
	C251.070282,152.809860 252.379547,151.026505 254.024979,149.646317 
	C260.305145,144.378494 266.657532,139.196762 273.108551,134.108215 
	C273.234161,134.233566 273.485474,134.484192 273.317078,134.758682 
	C271.989288,136.590256 270.829895,138.147354 269.670471,139.704437 
z"/>
<path fill="#9EE3E0" opacity="1.000000" stroke="none" 
	d="
M241.881317,141.163956 
	C242.093628,141.211136 242.305939,141.258316 243.167374,141.210693 
	C244.659027,140.176407 245.501541,139.236877 246.344070,138.297363 
	C246.344070,138.297363 246.706009,138.222092 247.206268,138.123657 
	C248.741364,137.633545 249.776184,137.241852 250.849594,137.210175 
	C246.033829,144.923187 242.087006,145.567703 235.934769,140.004395 
	C234.341415,138.563568 232.764343,137.104736 231.178345,135.655762 
	C225.962128,130.890244 222.606491,130.985428 217.562698,135.796570 
	C219.032394,133.155960 220.703354,130.753769 222.374313,128.351593 
	C223.552979,128.346985 224.731659,128.342377 226.387390,128.654755 
	C229.578156,130.978821 232.291840,132.985916 235.005524,134.993011 
	C235.005524,134.993011 235.000000,135.000000 235.106125,135.308838 
	C236.401459,136.474899 237.590668,137.332108 238.779877,138.189316 
	C238.779877,138.189316 238.926331,138.071091 238.926468,138.467621 
	C239.911499,139.630768 240.896408,140.397369 241.881317,141.163956 
z"/>
<path fill="#9EE3E0" opacity="1.000000" stroke="none" 
	d="
M285.017761,114.968681 
	C285.017761,114.968681 285.364502,115.118736 285.650635,115.535332 
	C288.095001,119.775742 287.089111,122.841316 283.928009,125.662575 
	C281.777832,127.581581 279.952637,129.864700 277.982117,131.985016 
	C277.982117,131.985016 278.000000,132.000000 277.660461,132.008148 
	C276.042450,132.838943 274.763947,133.661560 273.485474,134.484192 
	C273.485474,134.484192 273.234161,134.233566 273.161743,133.767365 
	C275.943817,130.447281 279.051453,127.794830 281.548737,124.656639 
	C282.846649,123.025650 284.236298,119.386192 283.533173,118.671143 
	C281.999603,117.111542 279.151794,116.227394 276.843719,116.232796 
	C274.839386,116.237480 272.838806,117.845634 270.886169,118.401566 
	C277.237457,111.703537 277.493103,111.801247 285.017761,114.968681 
z"/>
<path fill="#34C4BE" opacity="1.000000" stroke="none" 
	d="
M221.980942,128.242920 
	C220.703354,130.753769 219.032394,133.155960 217.545044,136.124878 
	C217.755798,137.128845 217.782974,137.566086 217.618439,138.192810 
	C217.901932,138.966614 218.377121,139.550949 219.114410,140.256134 
	C219.879852,140.961060 220.383209,141.545120 220.886551,142.129181 
	C222.925110,144.495239 224.963669,146.861282 227.052063,149.563263 
	C225.810577,149.391602 224.283798,149.164841 223.275528,148.319595 
	C220.976135,146.392029 218.829132,144.254166 216.803574,142.034424 
	C212.632324,137.463333 215.310181,129.804321 221.980942,128.242920 
z"/>
<path fill="#34C4BE" opacity="1.000000" stroke="none" 
	d="
M227.066711,150.270691 
	C229.615082,151.972748 231.869171,154.567978 234.710678,155.986725 
	C238.038254,157.648132 241.877335,158.285095 245.754669,159.547470 
	C244.466431,162.829437 243.022064,163.306961 239.521637,161.331726 
	C234.536026,158.518463 229.564255,156.145935 227.066711,150.270691 
z"/>
<path fill="#34C4BE" opacity="1.000000" stroke="none" 
	d="
M250.811020,136.850143 
	C249.776184,137.241852 248.741364,137.633545 247.373047,138.043961 
	C247.096054,137.403564 246.890533,136.436554 247.248596,136.131882 
	C251.994827,132.093369 256.820251,128.147903 261.897339,124.552750 
	C262.061951,125.544418 261.955139,126.162521 261.834778,126.795441 
	C261.821259,126.810249 261.794373,126.839447 261.494446,126.893372 
	C260.746918,127.575035 260.299286,128.202774 259.629822,129.047913 
	C258.537323,130.115311 257.666656,130.965332 256.448975,131.828125 
	C254.687393,133.174927 253.272888,134.508926 251.716156,136.042084 
	C251.356049,136.489807 251.101730,136.692780 250.811020,136.850143 
z"/>
<path fill="#34C4BE" opacity="1.000000" stroke="none" 
	d="
M278.348511,131.999664 
	C279.952637,129.864700 281.777832,127.581581 283.928009,125.662575 
	C287.089111,122.841316 288.095001,119.775742 285.833221,115.583755 
	C288.752167,116.343796 290.669464,122.248253 288.277313,124.683655 
	C285.490540,127.520805 281.936188,129.603973 278.348511,131.999664 
z"/>
<path fill="#34C4BE" opacity="1.000000" stroke="none" 
	d="
M285.013367,114.569099 
	C277.493103,111.801247 277.237457,111.703537 270.864014,118.412903 
	C270.792206,118.767830 270.759033,118.805008 270.422638,118.807236 
	C269.419006,118.901649 268.751801,118.993851 268.011749,119.010269 
	C267.938934,118.934502 267.795898,118.780510 267.795898,118.780510 
	C270.894287,113.630959 274.822998,109.764809 281.435089,111.147446 
	C282.778290,111.428314 283.825378,113.125336 285.013367,114.569099 
z"/>
<path fill="#34C4BE" opacity="1.000000" stroke="none" 
	d="
M273.317078,134.758682 
	C274.763947,133.661560 276.042450,132.838943 277.653198,131.999130 
	C275.458710,134.608246 272.931946,137.234528 270.037842,139.782639 
	C270.829895,138.147354 271.989288,136.590256 273.317078,134.758682 
z"/>
<path fill="#34C4BE" opacity="1.000000" stroke="none" 
	d="
M235.011627,134.618683 
	C232.291840,132.985916 229.578156,130.978821 226.741089,128.662323 
	C229.417709,130.316742 232.217712,132.280548 235.011627,134.618683 
z"/>
<path fill="#34C4BE" opacity="1.000000" stroke="none" 
	d="
M247.982391,159.712952 
	C249.752518,157.686020 251.913086,155.776749 254.396179,153.767334 
	C252.603424,155.721664 250.488144,157.776154 247.982391,159.712952 
z"/>
<path fill="#34C4BE" opacity="1.000000" stroke="none" 
	d="
M262.170471,146.806274 
	C263.987396,144.579132 266.169342,142.397827 268.661469,140.089050 
	C269.033203,144.319763 265.234406,145.072220 262.170471,146.806274 
z"/>
<path fill="#34C4BE" opacity="1.000000" stroke="none" 
	d="
M263.009155,124.016129 
	C264.392242,122.357063 265.775330,120.697998 267.477142,118.909721 
	C267.795898,118.780510 267.938934,118.934502 267.951050,119.319550 
	C267.662506,120.490784 267.361877,121.276970 266.811005,122.204491 
	C265.985504,122.851891 265.410248,123.357956 264.529175,123.876633 
	C263.818604,123.931541 263.413879,123.973831 263.009155,124.016129 
z"/>
<path fill="#34C4BE" opacity="1.000000" stroke="none" 
	d="
M238.818939,137.819000 
	C237.590668,137.332108 236.401459,136.474899 235.109131,135.306015 
	C236.289993,135.812454 237.573990,136.630554 238.818939,137.819000 
z"/>
<path fill="#9EE3E0" opacity="1.000000" stroke="none" 
	d="
M262.844360,124.100876 
	C263.413879,123.973831 263.818604,123.931541 264.573395,124.237999 
	C263.898407,125.318039 262.873383,126.049332 261.848328,126.780624 
	C261.955139,126.162521 262.061951,125.544418 262.253113,124.627388 
	C262.337494,124.328461 262.679535,124.185623 262.844360,124.100876 
z"/>
<path fill="#34C4BE" opacity="1.000000" stroke="none" 
	d="
M256.041138,152.783539 
	C256.469879,151.773956 257.271698,150.830627 258.385010,149.829193 
	C257.935730,150.797318 257.174957,151.823532 256.041138,152.783539 
z"/>
<path fill="#34C4BE" opacity="1.000000" stroke="none" 
	d="
M259.140594,149.764954 
	C259.564178,148.772430 260.350098,147.846558 261.448425,146.862411 
	C261.008179,147.813293 260.255554,148.822464 259.140594,149.764954 
z"/>
<path fill="#34C4BE" opacity="1.000000" stroke="none" 
	d="
M245.971161,138.226196 
	C245.501541,139.236877 244.659027,140.176407 243.490204,141.163666 
	C243.975357,140.192612 244.786789,139.173828 245.971161,138.226196 
z"/>
<path fill="#34C4BE" opacity="1.000000" stroke="none" 
	d="
M241.888275,140.800781 
	C240.896408,140.397369 239.911499,139.630768 238.869873,138.542816 
	C239.840515,138.960190 240.867889,139.698898 241.888275,140.800781 
z"/>
<path fill="#FFBA8D" opacity="1.000000" stroke="none" 
	d="
M171.712997,297.199036 
	C176.295929,300.799896 179.603134,304.490051 179.093262,310.649780 
	C178.641479,316.107849 179.023315,321.632843 178.988571,327.127991 
	C178.939774,334.848969 173.100128,343.806946 166.861542,345.802490 
	C160.682343,347.779083 152.100449,344.163116 146.924118,337.903687 
	C144.107498,334.497711 142.675018,330.996826 143.011551,326.546021 
	C143.312027,322.572083 143.324768,318.538483 143.023712,314.564636 
	C142.354523,305.731903 146.760391,299.770813 153.566208,295.098572 
	C157.013519,292.731995 167.533524,293.916107 171.712997,297.199036 
M177.100830,313.731628 
	C176.965012,304.581665 169.127884,295.674866 161.027252,296.090576 
	C153.598236,296.471802 146.504074,302.800171 146.881042,313.325897 
	C147.041809,317.815125 146.894470,322.314941 146.910538,326.809875 
	C146.943405,336.009064 152.477356,342.052124 160.909515,342.117859 
	C170.227737,342.190521 176.907883,335.828461 177.070145,326.662506 
	C177.140869,322.668091 177.095917,318.671661 177.100830,313.731628 
z"/>
<path fill="#FFFEFD" opacity="1.000000" stroke="none" 
	d="
M473.091949,314.085876 
	C473.091309,318.563629 472.669434,322.608154 473.170563,326.534912 
	C474.537048,337.241119 464.933685,343.263916 455.428162,340.752258 
	C452.855835,340.072601 450.419617,337.175903 448.856750,334.704926 
	C444.587677,327.955261 444.675720,320.214813 445.090271,312.582825 
	C445.417023,306.566650 453.740295,297.904480 459.679688,297.006287 
	C464.386963,296.294403 472.783234,303.228973 473.058350,308.112488 
	C473.161072,309.936127 473.085876,311.769806 473.091949,314.085876 
z"/>
<path fill="#F9FDFD" opacity="1.000000" stroke="none" 
	d="
M261.834778,126.795441 
	C262.873383,126.049332 263.898407,125.318039 264.879211,124.225380 
	C265.410248,123.357956 265.985504,122.851891 267.170837,122.206772 
	C268.773621,120.980141 269.766327,119.892570 270.759033,118.805008 
	C270.759033,118.805008 270.792206,118.767830 270.814392,118.756485 
	C272.838806,117.845634 274.839386,116.237480 276.843719,116.232796 
	C279.151794,116.227394 281.999603,117.111542 283.533173,118.671143 
	C284.236298,119.386192 282.846649,123.025650 281.548737,124.656639 
	C279.051453,127.794830 275.943817,130.447281 273.036133,133.642029 
	C266.657532,139.196762 260.305145,144.378494 254.024979,149.646317 
	C252.379547,151.026505 251.070282,152.809860 249.414093,154.174393 
	C243.270294,159.236206 240.367615,158.694885 234.725342,152.995087 
	C230.740585,148.969681 226.011658,145.680923 221.250763,142.096222 
	C220.383209,141.545120 219.879852,140.961060 219.155396,139.923859 
	C218.559555,138.981598 218.184845,138.492462 217.810150,138.003326 
	C217.782974,137.566086 217.755798,137.128845 217.746277,136.363297 
	C222.606491,130.985428 225.962128,130.890244 231.178345,135.655762 
	C232.764343,137.104736 234.341415,138.563568 235.934769,140.004395 
	C242.087006,145.567703 246.033829,144.923187 250.849594,137.210175 
	C251.101730,136.692780 251.356049,136.489807 252.080902,136.076843 
	C253.990585,134.546753 255.393295,133.181046 256.796021,131.815338 
	C257.666656,130.965332 258.537323,130.115311 259.970642,129.064819 
	C260.953644,128.189377 261.373993,127.514404 261.794373,126.839447 
	C261.794373,126.839447 261.821259,126.810249 261.834778,126.795441 
z"/>
<path fill="#9EE3E0" opacity="1.000000" stroke="none" 
	d="
M217.618439,138.192810 
	C218.184845,138.492462 218.559555,138.981598 218.893295,139.803009 
	C218.377121,139.550949 217.901932,138.966614 217.618439,138.192810 
z"/>
<path fill="#9EE3E0" opacity="1.000000" stroke="none" 
	d="
M256.448975,131.828125 
	C255.393295,133.181046 253.990585,134.546753 252.223114,135.877686 
	C253.272888,134.508926 254.687393,133.174927 256.448975,131.828125 
z"/>
<path fill="#9EE3E0" opacity="1.000000" stroke="none" 
	d="
M261.494446,126.893364 
	C261.373993,127.514404 260.953644,128.189377 260.192505,128.847427 
	C260.299286,128.202774 260.746918,127.575035 261.494446,126.893364 
z"/>
<path fill="#9EE3E0" opacity="1.000000" stroke="none" 
	d="
M270.422638,118.807228 
	C269.766327,119.892570 268.773621,120.980141 267.421082,122.065430 
	C267.361877,121.276970 267.662506,120.490784 268.023865,119.395317 
	C268.751801,118.993851 269.419006,118.901649 270.422638,118.807228 
z"/>
<path fill="#FFFBF8" opacity="1.000000" stroke="none" 
	d="
M177.102158,314.203888 
	C177.095917,318.671661 177.140869,322.668091 177.070145,326.662506 
	C176.907883,335.828461 170.227737,342.190521 160.909515,342.117859 
	C152.477356,342.052124 146.943405,336.009064 146.910538,326.809875 
	C146.894470,322.314941 147.041809,317.815125 146.881042,313.325897 
	C146.504074,302.800171 153.598236,296.471802 161.027252,296.090576 
	C169.127884,295.674866 176.965012,304.581665 177.102158,314.203888 
z"/>
</svg>