<svg version="1.1" id="Layer_1" xmlns="http://www.w3.org/2000/svg" xmlns:xlink="http://www.w3.org/1999/xlink" x="0px" y="0px"
	 width="100%" viewBox="0 0 360 163" enable-background="new 0 0 360 163" xml:space="preserve">
<path fill="#000000" opacity="1.000000" stroke="none" 
	d="
M31.000000,164.000000 
	C21.004589,164.000000 11.009176,164.000000 1.010324,164.000000 
	C1.006883,109.696182 1.006883,55.392372 1.006883,1.044278 
	C120.915413,1.044278 240.830841,1.044278 360.873138,1.044278 
	C360.873138,55.223564 360.873138,109.447517 360.873138,164.000000 
	C281.979401,164.000000 202.958359,164.000000 123.461914,163.611862 
	C122.142220,160.790543 121.351692,158.337128 120.445328,155.927292 
	C111.294891,131.598251 102.171959,107.258690 92.945229,82.958572 
	C86.717140,66.555885 80.335190,50.211624 73.947197,33.606194 
	C73.645775,33.039852 73.353561,32.965126 72.532364,33.073776 
	C62.482605,33.000565 52.896179,33.000565 42.860840,33.000565 
	C42.860840,43.590302 42.860840,53.647106 42.860840,64.161758 
	C39.677162,64.161758 36.950298,64.161758 34.151196,64.161758 
	C34.151196,74.754303 34.151196,84.874809 34.076729,95.225822 
	C34.002258,95.456329 33.875656,95.923973 33.441933,95.951813 
	C32.332733,97.468796 31.077637,98.954590 31.069036,100.447578 
	C30.947001,121.631149 30.993929,142.815689 31.000000,164.000000 
M231.494415,72.099709 
	C234.202560,70.315277 236.984558,68.632378 239.604843,66.727097 
	C247.046585,61.316051 249.541962,49.597492 244.978363,41.913292 
	C239.528107,32.736118 225.761887,29.422829 216.543137,34.963825 
	C209.922623,38.943127 206.495422,44.434784 206.941620,52.398365 
	C207.427750,61.074402 213.545715,65.509285 219.515976,70.123001 
	C222.874115,72.718086 226.252823,75.733955 231.494415,72.099709 
M174.759354,85.943626 
	C175.400528,86.057426 176.061417,86.106850 176.679413,86.296288 
	C179.203812,87.070122 182.026962,88.410393 182.938538,84.428345 
	C183.792633,80.697304 181.179779,79.261726 178.170898,79.088150 
	C174.209946,78.859650 169.905823,78.341248 166.332153,79.601036 
	C163.446289,80.618370 160.116791,83.720543 159.328262,86.550903 
	C158.181168,90.668381 157.869705,95.793770 163.038925,98.551170 
	C166.472595,100.382774 170.110214,101.933449 173.239807,104.188278 
	C174.672989,105.220863 175.744247,107.641891 175.755615,109.440964 
	C175.762802,110.583069 173.438248,112.768303 172.298035,112.680725 
	C169.715683,112.482361 167.268188,110.940102 164.671921,110.378616 
	C162.663269,109.944199 159.018799,109.504799 158.699432,110.222931 
	C157.670853,112.535851 156.544250,115.871124 160.492355,117.138176 
	C163.967712,118.253517 167.501663,119.607796 171.083160,119.876022 
	C177.029663,120.321381 182.428345,116.863907 183.814651,112.587616 
	C185.560471,107.202354 183.718185,101.055626 178.803299,97.427170 
	C176.645508,95.834160 173.674072,95.331932 171.548508,93.710037 
	C169.698227,92.298203 168.518127,90.008049 167.041885,88.106010 
	C169.373657,87.252808 171.705429,86.399612 174.759354,85.943626 
M194.228775,93.787476 
	C188.639130,92.266777 188.021576,92.666451 188.007294,98.055687 
	C187.981232,107.884766 188.112045,117.716011 187.932404,127.541885 
	C187.877945,130.520996 189.233307,132.305740 191.735123,131.777023 
	C193.377884,131.429840 195.411957,129.243835 195.812775,127.538628 
	C196.485733,124.675629 195.996918,121.539558 195.996918,118.265213 
	C204.331680,122.359772 211.067245,118.684319 212.472488,110.273178 
	C213.777939,102.459328 211.808884,93.968765 203.757416,92.534668 
	C200.977020,92.039444 197.824402,93.634033 194.228775,93.787476 
M237.754303,101.275734 
	C235.426895,91.426880 225.940170,90.903969 219.150299,93.565384 
	C217.736465,94.119553 216.075958,96.936958 216.365570,98.329414 
	C216.931458,101.050308 219.207382,100.985878 221.728989,99.836975 
	C226.577087,97.628044 228.256226,98.575584 229.717102,103.813950 
	C224.219437,104.399925 217.455032,102.922707 215.291336,110.020203 
	C214.547119,112.461395 215.525970,116.802437 217.352539,118.367393 
	C221.187057,121.652687 225.811813,120.542740 228.526428,118.134697 
	C231.607071,118.798347 234.264267,120.217728 235.537552,119.422180 
	C236.998413,118.509438 237.704453,115.676750 237.896622,113.600220 
	C238.247635,109.807526 237.978989,105.957497 237.754303,101.275734 
M289.561279,119.999733 
	C291.140686,119.738617 292.786926,119.679466 294.288391,119.182724 
	C302.391357,116.501945 301.975281,109.783684 302.075989,103.073616 
	C302.164917,97.145103 294.499146,91.314133 289.235260,92.185020 
	C280.800140,93.580551 277.915985,96.929565 277.081268,105.842255 
	C276.369202,113.445084 280.846436,118.513939 289.561279,119.999733 
M259.408875,111.212326 
	C251.599091,115.712639 248.508041,111.809982 248.965042,105.211449 
	C249.290283,100.515465 252.483780,98.160690 257.329834,100.236984 
	C260.129333,101.436447 261.754700,100.603363 262.498260,98.616562 
	C262.909851,97.516830 261.748840,95.120560 260.590485,94.265503 
	C255.925049,90.821686 247.850952,91.735687 244.028229,95.557610 
	C240.714706,98.870422 239.823502,110.412750 242.269485,114.743065 
	C244.688934,119.026398 252.297226,121.694298 258.151031,119.762337 
	C260.029907,119.142242 261.694641,117.138000 262.792175,115.357094 
	C263.100616,114.856590 261.045715,112.899612 259.408875,111.212326 
M272.228180,93.076019 
	C269.905701,93.419662 266.263794,91.482216 266.085663,95.815857 
	C265.806702,102.601608 265.811493,109.418236 266.183502,116.195023 
	C266.256348,117.522606 268.402710,119.475082 269.856903,119.751976 
	C270.998901,119.969429 273.727356,118.050667 273.730347,117.074707 
	C273.754364,109.231270 273.298584,101.386353 272.228180,93.076019 
M268.775269,87.938065 
	C270.496796,87.025009 272.544464,86.407738 273.775787,85.050095 
	C274.253571,84.523308 273.280396,81.683800 272.256439,81.052795 
	C271.069275,80.321213 268.676819,80.221428 267.548615,80.967690 
	C264.232300,83.161247 265.975647,85.489166 268.775269,87.938065 
z"/>
<path fill="#F29153" opacity="1.000000" stroke="none" 
	d="
M31.468658,164.000000 
	C30.993929,142.815689 30.947001,121.631149 31.069036,100.447578 
	C31.077637,98.954590 32.332733,97.468796 33.917587,95.964447 
	C50.893078,95.942726 66.959190,95.936203 83.442993,95.985023 
	C84.581337,97.747353 85.917793,99.450333 85.928947,101.161942 
	C86.065399,122.107224 86.007545,143.053772 86.000000,164.000000 
	C67.979103,164.000000 49.958210,164.000000 31.468658,164.000000 
M44.489738,143.080276 
	C44.328293,143.135757 44.166847,143.191238 43.402950,143.622971 
	C43.674465,144.756149 43.921894,145.896988 44.274067,147.004517 
	C44.296490,147.075027 45.132011,146.886978 45.589279,146.819229 
	C45.392002,145.595291 45.194725,144.371368 44.489738,143.080276 
M48.652042,132.095413 
	C48.753868,131.615005 49.100113,130.864960 48.916958,130.698944 
	C47.901566,129.778519 46.846439,128.617172 45.620388,128.332138 
	C44.992569,128.186203 43.980053,129.695084 43.141407,130.456070 
	C44.280552,131.226593 45.385132,132.058701 46.580235,132.729523 
	C46.931240,132.926544 47.538975,132.666183 48.652042,132.095413 
M43.488529,150.953293 
	C42.779808,153.244049 42.972019,155.139862 45.985874,154.695419 
	C47.061974,154.536758 47.977413,153.288574 48.966190,152.537704 
	C47.659611,151.756561 46.367569,150.948746 45.031738,150.221329 
	C44.816013,150.103836 44.405556,150.343933 43.488529,150.953293 
M48.958263,108.392754 
	C48.624451,104.737213 45.960972,106.252083 44.136581,106.446251 
	C43.752533,106.487122 43.563206,108.357597 43.284157,109.385025 
	C45.157639,109.321419 47.031116,109.257820 48.958263,108.392754 
M34.757885,108.529274 
	C35.282558,108.965981 35.807232,109.402687 36.331902,109.839401 
	C36.326477,108.691399 36.321049,107.543388 36.315620,106.395386 
	C35.799210,106.845352 35.282803,107.295319 34.757885,108.529274 
M36.879974,131.391846 
	C36.713402,130.379929 36.546825,129.368011 36.380249,128.356079 
	C35.799046,128.523727 35.217842,128.691376 34.636639,128.859024 
	C35.184479,129.868042 35.732319,130.877045 36.879974,131.391846 
M34.973640,151.052780 
	C35.094822,152.034485 35.216007,153.016190 35.337189,153.997910 
	C35.917461,153.835251 36.497730,153.672592 37.078003,153.509933 
	C36.552315,152.506088 36.026627,151.502258 34.973640,151.052780 
M71.452255,151.171066 
	C71.028526,151.821198 70.604790,152.471313 70.181061,153.121445 
	C70.542953,153.354263 70.904846,153.587082 71.266747,153.819916 
	C71.479095,153.136002 71.691452,152.452072 71.452255,151.171066 
M70.195457,129.750641 
	C70.412392,130.432373 70.629333,131.114105 70.846275,131.795853 
	C71.200035,131.577988 71.553802,131.360138 71.907562,131.142273 
	C71.507401,130.495880 71.107246,129.849472 70.195457,129.750641 
M45.121933,115.962875 
	C45.219845,116.080505 45.301086,116.222664 45.422756,116.305336 
	C45.482998,116.346283 45.706516,116.273857 45.705883,116.259247 
	C45.677025,115.595375 45.631489,114.932228 45.587906,114.268997 
	C45.400570,114.617844 45.213238,114.966690 45.121933,115.962875 
M79.504990,116.453735 
	C79.634056,115.766815 79.763130,115.079895 79.892204,114.392982 
	C79.633102,114.369476 79.374001,114.345970 79.114899,114.322464 
	C79.114899,114.861465 79.114899,115.400459 79.504990,116.453735 
M45.122906,137.989075 
	C45.226166,138.112015 45.311352,138.264786 45.441376,138.343536 
	C45.495228,138.376144 45.737656,138.249222 45.737053,138.196640 
	C45.730461,137.619186 45.692802,137.042099 45.663578,136.464905 
	C45.457706,136.768295 45.251831,137.071686 45.122906,137.989075 
M79.948250,136.762497 
	C79.650208,136.989136 79.352173,137.215775 79.054131,137.442413 
	C79.272507,137.711823 79.490883,137.981247 79.709259,138.250656 
	C79.816956,137.959824 79.924660,137.668991 79.948250,136.762497 
z"/>
<path fill="#94B7D0" opacity="1.000000" stroke="none" 
	d="
M86.468658,164.000000 
	C86.007545,143.053772 86.065399,122.107224 85.928947,101.161942 
	C85.917793,99.450333 84.581337,97.747353 83.385788,95.753555 
	C82.910881,95.466736 82.762047,95.012474 82.831924,94.547775 
	C82.923027,87.314270 83.055038,80.543564 82.939194,73.777107 
	C82.771019,63.954063 84.987541,64.639862 73.607941,64.569122 
	C73.538414,64.359612 73.278122,64.003014 73.329941,63.536438 
	C73.310211,53.545364 73.238670,44.020866 73.389587,34.343971 
	C73.748718,34.074787 73.885391,33.958004 74.022072,33.841225 
	C80.335190,50.211624 86.717140,66.555885 92.945229,82.958572 
	C102.171959,107.258690 111.294891,131.598251 120.445328,155.927292 
	C121.351692,158.337128 122.142220,160.790543 122.993256,163.611862 
	C110.979103,164.000000 98.958214,164.000000 86.468658,164.000000 
z"/>
<path fill="#F09153" opacity="1.000000" stroke="none" 
	d="
M73.677467,64.778625 
	C84.987541,64.639862 82.771019,63.954063 82.939194,73.777107 
	C83.055038,80.543564 82.923027,87.314270 82.435341,94.546860 
	C80.260857,94.582909 78.552834,94.155190 76.891464,93.346939 
	C76.742325,91.969376 76.546532,90.972336 76.350739,89.975296 
	C75.950760,90.035316 75.550774,90.095329 75.150787,90.155350 
	C75.150787,91.371185 75.150787,92.587013 74.814499,94.068405 
	C68.446648,94.563393 62.415257,94.943672 56.383469,94.950127 
	C53.871021,94.952820 51.357719,94.159073 48.891464,93.346947 
	C48.742325,91.969383 48.546532,90.972336 48.350739,89.975296 
	C47.950760,90.032166 47.550777,90.089035 47.150799,90.145912 
	C47.150799,91.364891 47.150799,92.583878 46.819168,94.066292 
	C42.375420,94.551590 38.263309,94.773453 34.151196,94.995316 
	C34.151196,84.874809 34.151196,74.754303 34.151196,64.161758 
	C36.950298,64.161758 39.677162,64.161758 42.860840,64.161758 
	C42.860840,53.647106 42.860840,43.590302 42.860840,33.000565 
	C52.896179,33.000565 62.482605,33.000565 72.573586,33.411335 
	C73.107803,34.046860 73.137466,34.271614 73.167130,34.496372 
	C73.238670,44.020866 73.310211,53.545364 72.836426,63.535660 
	C65.863136,64.001457 59.435158,64.001457 52.671799,64.001457 
	C52.671799,61.932358 52.671799,60.536148 52.671799,59.411064 
	C50.252876,59.411064 48.249573,59.411064 46.203064,59.411064 
	C45.954453,61.300171 45.730221,63.004059 45.467648,64.999252 
	C47.002827,64.999252 48.149879,65.007881 49.296764,64.997871 
	C57.423683,64.926926 65.550568,64.852165 73.677467,64.778625 
M67.397087,40.085846 
	C67.397087,40.085846 67.352982,40.120598 68.190468,40.336094 
	C68.469391,40.408852 68.748322,40.481613 69.445335,40.647610 
	C69.418320,40.097889 69.391304,39.548168 69.040848,38.509449 
	C68.597725,38.337402 68.154610,38.165356 67.490860,37.992878 
	C67.490860,37.992878 67.270248,37.994556 66.807510,37.511093 
	C67.022751,38.369442 67.237999,39.227787 67.397087,40.085846 
M56.286140,44.353691 
	C56.555752,45.173836 56.825363,45.993984 57.611423,46.799995 
	C57.830341,46.534855 58.049259,46.269714 58.862862,46.131271 
	C59.732101,46.083305 60.601345,46.035339 61.470589,45.987377 
	C61.407482,45.560734 61.336601,44.761528 61.282417,44.762657 
	C60.276867,44.783642 59.273308,44.899990 57.936569,44.509514 
	C57.589771,44.402512 57.242977,44.295513 56.286140,44.353691 
M56.063786,37.774151 
	C56.393970,38.465343 56.724155,39.156532 57.604176,39.842068 
	C57.839161,39.563015 58.074142,39.283962 58.851486,39.303474 
	C59.792351,39.116913 60.733219,38.930351 61.674084,38.743790 
	C61.561188,38.176498 61.448292,37.609211 61.335392,37.041920 
	C60.327339,37.360863 59.319286,37.679806 58.041264,37.435989 
	C57.689999,37.045818 57.338737,36.655647 56.987476,36.265480 
	C56.732494,36.550690 56.477512,36.835899 56.063786,37.774151 
M46.433434,37.259274 
	C46.343002,37.449963 46.349892,37.638058 46.675865,38.549553 
	C47.516453,38.700409 48.357037,38.851265 49.762089,39.285149 
	C50.846050,38.929714 51.930008,38.574280 53.013969,38.218849 
	C52.736633,37.732357 52.459301,37.245869 52.181965,36.759377 
	C51.187252,37.172871 50.192543,37.586365 48.993477,37.361561 
	C48.179466,37.273533 47.365459,37.185505 46.433434,37.259274 
M46.417484,44.264977 
	C46.331551,44.442879 46.332581,44.621014 46.644787,45.538052 
	C47.485821,45.692623 48.326859,45.847195 49.784649,46.121170 
	C50.698437,46.121170 51.612225,46.121170 52.526012,46.121170 
	C52.591675,45.682522 52.657337,45.243874 52.723000,44.805229 
	C51.512276,44.536304 50.301556,44.267384 48.671360,43.559811 
	C47.957012,43.743977 47.242668,43.928143 46.417484,44.264977 
M49.487385,50.092117 
	C48.238831,50.990452 46.990273,51.888790 45.741714,52.787128 
	C46.029137,53.053135 46.316555,53.319145 46.603977,53.585152 
	C48.598984,53.585152 50.593994,53.585152 53.837013,53.585152 
	C52.187584,52.019196 51.197914,51.079609 49.487385,50.092117 
M60.822792,53.906830 
	C60.953735,52.860661 61.084682,51.814487 61.215630,50.768318 
	C59.801346,50.599533 58.387058,50.430748 56.972775,50.261963 
	C56.881447,50.647022 56.790119,51.032082 56.698792,51.417137 
	C57.879349,52.183197 59.059906,52.949257 60.822792,53.906830 
M59.003822,59.650841 
	C57.758591,59.965687 56.513359,60.280529 55.268127,60.595375 
	C55.979671,61.433472 56.691216,62.271568 57.402760,63.109665 
	C58.673321,62.683460 60.386551,62.625809 61.116272,61.749325 
	C62.381149,60.230061 62.554123,58.525314 59.003822,59.650841 
M67.659050,60.308792 
	C67.152161,60.962353 66.645264,61.615917 66.138374,62.269478 
	C67.461220,62.383579 68.784058,62.497681 70.106903,62.611782 
	C70.151703,62.246864 70.196503,61.881950 70.241302,61.517036 
	C69.581619,61.132442 68.921936,60.747852 67.659050,60.308792 
M69.621269,50.302040 
	C68.625526,50.455116 67.629791,50.608196 66.634048,50.761272 
	C66.862167,51.359802 67.090279,51.958336 67.318398,52.556866 
	C68.232018,51.929882 69.145638,51.302902 69.621269,50.302040 
M57.392502,90.178978 
	C56.972439,90.827492 56.552380,91.476013 56.132320,92.124527 
	C56.490559,92.355392 56.848801,92.586258 57.207039,92.817131 
	C57.427750,92.132149 57.648457,91.447174 57.392502,90.178978 
M65.882103,47.047554 
	C66.046997,47.152992 66.211884,47.258430 66.376778,47.363869 
	C66.271286,47.199055 66.165802,47.034241 65.882103,47.047554 
z"/>
<path fill="#00B5AD" opacity="1.000000" stroke="none" 
	d="
M231.198853,72.344261 
	C226.252823,75.733955 222.874115,72.718086 219.515976,70.123001 
	C213.545715,65.509285 207.427750,61.074402 206.941620,52.398365 
	C206.495422,44.434784 209.922623,38.943127 216.543137,34.963825 
	C225.761887,29.422829 239.528107,32.736118 244.978363,41.913292 
	C249.541962,49.597492 247.046585,61.316051 239.604843,66.727097 
	C236.984558,68.632378 234.202560,70.315277 231.198853,72.344261 
M227.093170,51.423763 
	C226.250748,52.219360 225.408310,53.014961 224.963730,53.434822 
	C222.461411,52.222820 220.187256,51.121338 217.913116,50.019852 
	C217.667831,50.502697 217.422562,50.985538 217.177277,51.468384 
	C217.926773,52.285011 218.652908,53.124615 219.429581,53.914524 
	C224.248199,58.815323 224.652496,58.800190 229.548843,53.960762 
	C231.548813,51.984043 233.687180,50.142567 235.613632,48.099117 
	C236.217224,47.458855 236.334213,46.359856 236.673935,45.470837 
	C235.660141,45.616703 234.407089,45.436012 233.677826,45.970276 
	C231.572922,47.512363 229.679092,49.342579 227.093170,51.423763 
z"/>
<path fill="#FF9550" opacity="1.000000" stroke="none" 
	d="
M174.398285,85.745018 
	C171.705429,86.399612 169.373657,87.252808 167.041885,88.106010 
	C168.518127,90.008049 169.698227,92.298203 171.548508,93.710037 
	C173.674072,95.331932 176.645508,95.834160 178.803299,97.427170 
	C183.718185,101.055626 185.560471,107.202354 183.814651,112.587616 
	C182.428345,116.863907 177.029663,120.321381 171.083160,119.876022 
	C167.501663,119.607796 163.967712,118.253517 160.492355,117.138176 
	C156.544250,115.871124 157.670853,112.535851 158.699432,110.222931 
	C159.018799,109.504799 162.663269,109.944199 164.671921,110.378616 
	C167.268188,110.940102 169.715683,112.482361 172.298035,112.680725 
	C173.438248,112.768303 175.762802,110.583069 175.755615,109.440964 
	C175.744247,107.641891 174.672989,105.220863 173.239807,104.188278 
	C170.110214,101.933449 166.472595,100.382774 163.038925,98.551170 
	C157.869705,95.793770 158.181168,90.668381 159.328262,86.550903 
	C160.116791,83.720543 163.446289,80.618370 166.332153,79.601036 
	C169.905823,78.341248 174.209946,78.859650 178.170898,79.088150 
	C181.179779,79.261726 183.792633,80.697304 182.938538,84.428345 
	C182.026962,88.410393 179.203812,87.070122 176.679413,86.296288 
	C176.061417,86.106850 175.400528,86.057426 174.398285,85.745018 
z"/>
<path fill="#FF9550" opacity="1.000000" stroke="none" 
	d="
M194.535294,94.030746 
	C197.824402,93.634033 200.977020,92.039444 203.757416,92.534668 
	C211.808884,93.968765 213.777939,102.459328 212.472488,110.273178 
	C211.067245,118.684319 204.331680,122.359772 195.996918,118.265213 
	C195.996918,121.539558 196.485733,124.675629 195.812775,127.538628 
	C195.411957,129.243835 193.377884,131.429840 191.735123,131.777023 
	C189.233307,132.305740 187.877945,130.520996 187.932404,127.541885 
	C188.112045,117.716011 187.981232,107.884766 188.007294,98.055687 
	C188.021576,92.666451 188.639130,92.266777 194.535294,94.030746 
M204.690735,108.810120 
	C205.246964,103.095856 203.543777,99.023727 200.412949,99.353279 
	C195.391464,99.881836 195.612320,103.966011 196.130157,107.448395 
	C196.418091,109.384651 198.031250,111.123840 199.047150,112.951843 
	C200.744308,111.767471 202.441467,110.583099 204.690735,108.810120 
z"/>
<path fill="#FF9550" opacity="1.000000" stroke="none" 
	d="
M237.861542,101.703552 
	C237.978989,105.957497 238.247635,109.807526 237.896622,113.600220 
	C237.704453,115.676750 236.998413,118.509438 235.537552,119.422180 
	C234.264267,120.217728 231.607071,118.798347 228.526428,118.134697 
	C225.811813,120.542740 221.187057,121.652687 217.352539,118.367393 
	C215.525970,116.802437 214.547119,112.461395 215.291336,110.020203 
	C217.455032,102.922707 224.219437,104.399925 229.717102,103.813950 
	C228.256226,98.575584 226.577087,97.628044 221.728989,99.836975 
	C219.207382,100.985878 216.931458,101.050308 216.365570,98.329414 
	C216.075958,96.936958 217.736465,94.119553 219.150299,93.565384 
	C225.940170,90.903969 235.426895,91.426880 237.861542,101.703552 
M224.811996,109.056297 
	C224.303894,110.253944 223.619751,111.422813 223.415863,112.670189 
	C223.367035,112.968826 225.335907,114.107918 225.661987,113.872093 
	C227.429550,112.593742 228.972839,111.005264 230.593384,109.523613 
	C230.317520,109.243843 230.041656,108.964081 229.765793,108.684311 
	C228.377594,108.792091 226.989395,108.899879 224.811996,109.056297 
z"/>
<path fill="#FF9550" opacity="1.000000" stroke="none" 
	d="
M289.136414,119.999451 
	C280.846436,118.513939 276.369202,113.445084 277.081268,105.842255 
	C277.915985,96.929565 280.800140,93.580551 289.235260,92.185020 
	C294.499146,91.314133 302.164917,97.145103 302.075989,103.073616 
	C301.975281,109.783684 302.391357,116.501945 294.288391,119.182724 
	C292.786926,119.679466 291.140686,119.738617 289.136414,119.999451 
M292.582703,111.935951 
	C292.989288,108.798805 294.200623,105.489304 293.576019,102.573006 
	C292.951691,99.657860 289.090607,98.672127 287.245483,100.699028 
	C285.612061,102.493370 285.054138,106.156929 285.515930,108.726723 
	C286.012360,111.489426 288.057495,114.283577 292.582703,111.935951 
z"/>
<path fill="#FF9550" opacity="1.000000" stroke="none" 
	d="
M259.741852,111.411514 
	C261.045715,112.899612 263.100616,114.856590 262.792175,115.357094 
	C261.694641,117.138000 260.029907,119.142242 258.151031,119.762337 
	C252.297226,121.694298 244.688934,119.026398 242.269485,114.743065 
	C239.823502,110.412750 240.714706,98.870422 244.028229,95.557610 
	C247.850952,91.735687 255.925049,90.821686 260.590485,94.265503 
	C261.748840,95.120560 262.909851,97.516830 262.498260,98.616562 
	C261.754700,100.603363 260.129333,101.436447 257.329834,100.236984 
	C252.483780,98.160690 249.290283,100.515465 248.965042,105.211449 
	C248.508041,111.809982 251.599091,115.712639 259.741852,111.411514 
z"/>
<path fill="#FF9550" opacity="1.000000" stroke="none" 
	d="
M272.608826,93.308960 
	C273.298584,101.386353 273.754364,109.231270 273.730347,117.074707 
	C273.727356,118.050667 270.998901,119.969429 269.856903,119.751976 
	C268.402710,119.475082 266.256348,117.522606 266.183502,116.195023 
	C265.811493,109.418236 265.806702,102.601608 266.085663,95.815857 
	C266.263794,91.482216 269.905701,93.419662 272.608826,93.308960 
z"/>
<path fill="#D68755" opacity="1.000000" stroke="none" 
	d="
M34.076729,95.225822 
	C38.263309,94.773453 42.375420,94.551590 47.101109,94.053665 
	C48.091393,93.760895 48.468098,93.744179 48.844807,93.727463 
	C51.357719,94.159073 53.871021,94.952820 56.383469,94.950127 
	C62.415257,94.943672 68.446648,94.563393 75.096436,94.055786 
	C76.091385,93.760895 76.468094,93.744179 76.844803,93.727463 
	C78.552834,94.155190 80.260857,94.582909 82.365463,95.011551 
	C82.762047,95.012474 82.910881,95.466736 82.968094,95.698212 
	C66.959190,95.936203 50.893078,95.942726 34.351311,95.936615 
	C33.875656,95.923973 34.002258,95.456329 34.076729,95.225822 
z"/>
<path fill="#FF9550" opacity="1.000000" stroke="none" 
	d="
M268.422668,87.746780 
	C265.975647,85.489166 264.232300,83.161247 267.548615,80.967690 
	C268.676819,80.221428 271.069275,80.321213 272.256439,81.052795 
	C273.280396,81.683800 274.253571,84.523308 273.775787,85.050095 
	C272.544464,86.407738 270.496796,87.025009 268.422668,87.746780 
z"/>
<path fill="#EF9155" opacity="1.000000" stroke="none" 
	d="
M73.389587,34.343971 
	C73.137466,34.271614 73.107803,34.046860 73.036919,33.484547 
	C73.353561,32.965126 73.645775,33.039852 73.947197,33.606194 
	C73.885391,33.958004 73.748718,34.074787 73.389587,34.343971 
z"/>
<path fill="#516374" opacity="1.000000" stroke="none" 
	d="
M48.340546,132.355438 
	C47.538975,132.666183 46.931240,132.926544 46.580235,132.729523 
	C45.385132,132.058701 44.280552,131.226593 43.141403,130.456070 
	C43.980053,129.695084 44.992569,128.186203 45.620388,128.332138 
	C46.846439,128.617172 47.901566,129.778519 48.916958,130.698944 
	C49.100113,130.864960 48.753868,131.615005 48.340546,132.355438 
z"/>
<path fill="#516373" opacity="1.000000" stroke="none" 
	d="
M43.786819,150.686020 
	C44.405556,150.343933 44.816013,150.103836 45.031738,150.221329 
	C46.367569,150.948746 47.659611,151.756561 48.966187,152.537704 
	C47.977413,153.288574 47.061974,154.536758 45.985874,154.695419 
	C42.972019,155.139862 42.779808,153.244049 43.786819,150.686020 
z"/>
<path fill="#4D6274" opacity="1.000000" stroke="none" 
	d="
M48.931431,108.793488 
	C47.031116,109.257820 45.157639,109.321419 43.284157,109.385025 
	C43.563206,108.357597 43.752533,106.487122 44.136581,106.446251 
	C45.960972,106.252083 48.624451,104.737213 48.931431,108.793488 
z"/>
<path fill="#38607E" opacity="1.000000" stroke="none" 
	d="
M44.997452,143.147430 
	C45.194725,144.371368 45.392002,145.595291 45.589279,146.819229 
	C45.132011,146.886978 44.296490,147.075027 44.274067,147.004517 
	C43.921894,145.896988 43.674465,144.756149 43.740318,143.665237 
	C44.261261,144.073883 44.444832,144.440277 44.628403,144.806656 
	C44.751419,144.253586 44.874435,143.700500 44.997452,143.147430 
z"/>
<path fill="#154468" opacity="1.000000" stroke="none" 
	d="
M34.762138,108.137283 
	C35.282803,107.295319 35.799210,106.845352 36.315620,106.395386 
	C36.321049,107.543388 36.326477,108.691399 36.331902,109.839401 
	C35.807232,109.402687 35.282558,108.965981 34.762138,108.137283 
z"/>
<path fill="#204767" opacity="1.000000" stroke="none" 
	d="
M36.580067,131.638947 
	C35.732319,130.877045 35.184479,129.868042 34.636639,128.859024 
	C35.217842,128.691376 35.799046,128.523727 36.380249,128.356079 
	C36.546825,129.368011 36.713402,130.379929 36.580067,131.638947 
z"/>
<path fill="#204767" opacity="1.000000" stroke="none" 
	d="
M35.237289,150.775604 
	C36.026627,151.502258 36.552315,152.506088 37.078003,153.509933 
	C36.497730,153.672592 35.917461,153.835251 35.337189,153.997910 
	C35.216007,153.016190 35.094822,152.034485 35.237289,150.775604 
z"/>
<path fill="#10507D" opacity="1.000000" stroke="none" 
	d="
M71.678032,151.469604 
	C71.691452,152.452072 71.479095,153.136002 71.266739,153.819916 
	C70.904846,153.587082 70.542953,153.354263 70.181061,153.121445 
	C70.604790,152.471313 71.028526,151.821198 71.678032,151.469604 
z"/>
<path fill="#10507D" opacity="1.000000" stroke="none" 
	d="
M70.451279,129.476868 
	C71.107246,129.849472 71.507401,130.495880 71.907562,131.142273 
	C71.553802,131.360138 71.200035,131.577988 70.846268,131.795837 
	C70.629333,131.114105 70.412392,130.432373 70.451279,129.476868 
z"/>
<path fill="#1F537C" opacity="1.000000" stroke="none" 
	d="
M45.073917,115.639206 
	C45.213238,114.966690 45.400570,114.617844 45.587906,114.268997 
	C45.631489,114.932228 45.677025,115.595375 45.705883,116.259247 
	C45.706516,116.273857 45.482998,116.346283 45.422756,116.305336 
	C45.301086,116.222664 45.219845,116.080505 45.073917,115.639206 
z"/>
<path fill="#1F537C" opacity="1.000000" stroke="none" 
	d="
M79.309944,116.196594 
	C79.114899,115.400459 79.114899,114.861465 79.114899,114.322464 
	C79.374001,114.345970 79.633102,114.369476 79.892204,114.392982 
	C79.763130,115.079895 79.634056,115.766815 79.309944,116.196594 
z"/>
<path fill="#1F537C" opacity="1.000000" stroke="none" 
	d="
M45.084435,137.682068 
	C45.251831,137.071686 45.457706,136.768295 45.663574,136.464905 
	C45.692802,137.042099 45.730461,137.619186 45.737053,138.196640 
	C45.737656,138.249222 45.495228,138.376144 45.441376,138.343536 
	C45.311352,138.264786 45.226166,138.112015 45.084435,137.682068 
z"/>
<path fill="#1F537C" opacity="1.000000" stroke="none" 
	d="
M79.990303,137.070328 
	C79.924660,137.668991 79.816956,137.959824 79.709259,138.250656 
	C79.490883,137.981247 79.272507,137.711823 79.054131,137.442413 
	C79.352173,137.215775 79.650208,136.989136 79.990303,137.070328 
z"/>
<path fill="#004071" opacity="1.000000" stroke="none" 
	d="
M44.743595,143.113861 
	C44.874435,143.700500 44.751419,144.253586 44.628403,144.806656 
	C44.444832,144.440277 44.261261,144.073883 44.041542,143.477112 
	C44.166847,143.191238 44.328293,143.135757 44.743595,143.113861 
z"/>
<path fill="#EF9155" opacity="1.000000" stroke="none" 
	d="
M73.607941,64.569122 
	C65.550568,64.852165 57.423683,64.926926 49.296764,64.997871 
	C48.149879,65.007881 47.002827,64.999252 45.467648,64.999252 
	C45.730221,63.004059 45.954453,61.300171 46.203064,59.411064 
	C48.249573,59.411064 50.252876,59.411064 52.671799,59.411064 
	C52.671799,60.536148 52.671799,61.932358 52.671799,64.001457 
	C59.435158,64.001457 65.863136,64.001457 72.784615,64.002235 
	C73.278122,64.003014 73.538414,64.359612 73.607941,64.569122 
z"/>
<path fill="#EF9155" opacity="1.000000" stroke="none" 
	d="
M49.847816,50.116074 
	C51.197914,51.079609 52.187584,52.019196 53.837013,53.585152 
	C50.593994,53.585152 48.598984,53.585152 46.603977,53.585152 
	C46.316555,53.319145 46.029137,53.053135 45.741714,52.787128 
	C46.990273,51.888790 48.238831,50.990452 49.847816,50.116074 
z"/>
<path fill="#EF9155" opacity="1.000000" stroke="none" 
	d="
M60.531631,53.811073 
	C59.059906,52.949257 57.879349,52.183197 56.698792,51.417137 
	C56.790119,51.032082 56.881447,50.647022 56.972775,50.261963 
	C58.387058,50.430748 59.801346,50.599533 61.215630,50.768318 
	C61.084682,51.814487 60.953735,52.860661 60.531631,53.811073 
z"/>
<path fill="#EF9155" opacity="1.000000" stroke="none" 
	d="
M59.274014,59.486355 
	C62.554123,58.525314 62.381149,60.230061 61.116272,61.749325 
	C60.386551,62.625809 58.673321,62.683460 57.402760,63.109665 
	C56.691216,62.271568 55.979671,61.433472 55.268127,60.595375 
	C56.513359,60.280529 57.758591,59.965687 59.274014,59.486355 
z"/>
<path fill="#EF9155" opacity="1.000000" stroke="none" 
	d="
M67.960648,60.336029 
	C68.921936,60.747852 69.581619,61.132442 70.241302,61.517036 
	C70.196503,61.881950 70.151703,62.246864 70.106903,62.611782 
	C68.784058,62.497681 67.461220,62.383579 66.138374,62.269478 
	C66.645264,61.615917 67.152161,60.962353 67.960648,60.336029 
z"/>
<path fill="#EF9155" opacity="1.000000" stroke="none" 
	d="
M69.840263,50.488979 
	C69.145638,51.302902 68.232018,51.929882 67.318398,52.556866 
	C67.090279,51.958336 66.862167,51.359802 66.634048,50.761272 
	C67.629791,50.608196 68.625526,50.455116 69.840263,50.488979 
z"/>
<path fill="#EF9155" opacity="1.000000" stroke="none" 
	d="
M49.197830,37.999855 
	C50.192543,37.586365 51.187252,37.172871 52.181965,36.759377 
	C52.459301,37.245869 52.736633,37.732357 53.013969,38.218849 
	C51.930008,38.574280 50.846050,38.929714 49.444054,38.893066 
	C49.149960,38.333942 49.173893,38.166897 49.197830,37.999855 
z"/>
<path fill="#EF9155" opacity="1.000000" stroke="none" 
	d="
M58.311234,37.998753 
	C59.319286,37.679806 60.327339,37.360863 61.335392,37.041920 
	C61.448292,37.609211 61.561188,38.176498 61.674084,38.743790 
	C60.733219,38.930351 59.792351,39.116913 58.585594,38.902668 
	C58.316883,38.334160 58.314060,38.166458 58.311234,37.998753 
z"/>
<path fill="#EF9155" opacity="1.000000" stroke="none" 
	d="
M49.090836,43.998463 
	C50.301556,44.267384 51.512276,44.536304 52.723000,44.805229 
	C52.657337,45.243874 52.591675,45.682522 52.526012,46.121170 
	C51.612225,46.121170 50.698437,46.121170 49.421307,45.730347 
	C49.068924,44.892506 49.079880,44.445484 49.090836,43.998463 
z"/>
<path fill="#EF9155" opacity="1.000000" stroke="none" 
	d="
M58.269329,44.996262 
	C59.273308,44.899990 60.276867,44.783642 61.282417,44.762657 
	C61.336601,44.761528 61.407482,45.560734 61.470589,45.987377 
	C60.601345,46.035339 59.732101,46.083305 58.556404,45.815838 
	C58.256405,45.332355 58.262867,45.164310 58.269329,44.996262 
z"/>
<path fill="#154970" opacity="1.000000" stroke="none" 
	d="
M48.891464,93.346939 
	C48.468098,93.744179 48.091393,93.760895 47.432739,93.790230 
	C47.150799,92.583878 47.150799,91.364891 47.150799,90.145912 
	C47.550777,90.089035 47.950760,90.032166 48.350739,89.975296 
	C48.546532,90.972336 48.742325,91.969383 48.891464,93.346939 
z"/>
<path fill="#154970" opacity="1.000000" stroke="none" 
	d="
M76.891464,93.346939 
	C76.468094,93.744179 76.091385,93.760895 75.432732,93.790230 
	C75.150787,92.587013 75.150787,91.371185 75.150787,90.155350 
	C75.550774,90.095329 75.950760,90.035316 76.350739,89.975296 
	C76.546532,90.972336 76.742325,91.969376 76.891464,93.346939 
z"/>
<path fill="#204767" opacity="1.000000" stroke="none" 
	d="
M48.881096,43.779137 
	C49.079880,44.445484 49.068924,44.892506 49.112930,45.670647 
	C48.326859,45.847195 47.485821,45.692623 46.612228,45.005821 
	C46.579666,44.473587 46.528320,44.112309 46.528320,44.112309 
	C47.242668,43.928143 47.957012,43.743977 48.881096,43.779137 
z"/>
<path fill="#15456A" opacity="1.000000" stroke="none" 
	d="
M49.095654,37.680710 
	C49.173893,38.166897 49.149960,38.333942 49.161823,38.751556 
	C48.357037,38.851265 47.516453,38.700409 46.643822,38.012924 
	C46.611774,37.476292 46.551449,37.097481 46.551449,37.097481 
	C47.365459,37.185505 48.179466,37.273533 49.095654,37.680710 
z"/>
<path fill="#004273" opacity="1.000000" stroke="none" 
	d="
M57.630833,90.470581 
	C57.648457,91.447174 57.427750,92.132149 57.207039,92.817131 
	C56.848801,92.586258 56.490559,92.355392 56.132317,92.124527 
	C56.552380,91.476013 56.972439,90.827492 57.630833,90.470581 
z"/>
<path fill="#1A476B" opacity="1.000000" stroke="none" 
	d="
M58.176247,37.717369 
	C58.314060,38.166458 58.316883,38.334160 58.314415,38.753387 
	C58.074142,39.283962 57.839161,39.563015 57.317318,39.550980 
	C56.761150,38.546967 56.491837,37.834034 56.222527,37.121109 
	C56.477512,36.835899 56.732494,36.550690 56.987473,36.265480 
	C57.338737,36.655647 57.689999,37.045818 58.176247,37.717369 
z"/>
<path fill="#EF9155" opacity="1.000000" stroke="none" 
	d="
M69.364288,38.998447 
	C69.391304,39.548168 69.418320,40.097889 69.381577,40.225235 
	C69.333313,39.534721 69.348801,39.266586 69.364288,38.998447 
z"/>
<path fill="#003F6E" opacity="1.000000" stroke="none" 
	d="
M58.102951,44.752888 
	C58.262867,45.164310 58.256405,45.332355 58.259060,45.752487 
	C58.049259,46.269714 57.830341,46.534855 57.327751,46.478874 
	C56.994778,45.501339 56.945480,44.844929 56.896179,44.188515 
	C57.242977,44.295513 57.589771,44.402512 58.102951,44.752888 
z"/>
<path fill="#005892" opacity="1.000000" stroke="none" 
	d="
M56.591160,44.271103 
	C56.945480,44.844929 56.994778,45.501339 57.069527,46.485939 
	C56.825363,45.993984 56.555752,45.173836 56.591160,44.271103 
z"/>
<path fill="#EF9155" opacity="1.000000" stroke="none" 
	d="
M65.971207,46.958488 
	C66.165802,47.034241 66.271286,47.199055 66.376778,47.363869 
	C66.211884,47.258430 66.046997,47.152992 65.971207,46.958488 
z"/>
<path fill="#1F537B" opacity="1.000000" stroke="none" 
	d="
M69.202568,38.753948 
	C69.348801,39.266586 69.333313,39.534721 69.172531,40.178612 
	C68.748322,40.481613 68.469391,40.408852 67.894020,39.885399 
	C67.635544,38.954243 67.673515,38.473778 67.711487,37.993313 
	C68.154610,38.165356 68.597725,38.337402 69.202568,38.753948 
z"/>
<path fill="#004678" opacity="1.000000" stroke="none" 
	d="
M67.453239,40.086136 
	C67.237999,39.227787 67.022751,38.369442 67.037308,38.103836 
	C67.329147,39.159763 67.391190,39.622948 67.453239,40.086136 
z"/>
<path fill="#005A95" opacity="1.000000" stroke="none" 
	d="
M56.143158,37.447628 
	C56.491837,37.834034 56.761150,38.546967 57.042400,39.553810 
	C56.724155,39.156532 56.393970,38.465343 56.143158,37.447628 
z"/>
<path fill="#EF9155" opacity="1.000000" stroke="none" 
	d="
M67.425163,40.085991 
	C67.391190,39.622948 67.329147,39.159763 67.268677,38.345566 
	C67.270248,37.994556 67.490860,37.992878 67.601181,37.993095 
	C67.673515,38.473778 67.635544,38.954243 67.475281,39.777653 
	C67.352982,40.120598 67.397087,40.085846 67.425163,40.085991 
z"/>
<path fill="#EF9155" opacity="1.000000" stroke="none" 
	d="
M46.472900,44.188644 
	C46.528320,44.112309 46.579666,44.473587 46.500114,44.636482 
	C46.332581,44.621014 46.331551,44.442879 46.472900,44.188644 
z"/>
<path fill="#EF9155" opacity="1.000000" stroke="none" 
	d="
M46.492439,37.178375 
	C46.551449,37.097481 46.611774,37.476292 46.532940,37.649925 
	C46.349892,37.638058 46.343002,37.449963 46.492439,37.178375 
z"/>
<path fill="#000000" opacity="1.000000" stroke="none" 
	d="
M227.397766,51.241703 
	C229.679092,49.342579 231.572922,47.512363 233.677826,45.970276 
	C234.407089,45.436012 235.660141,45.616703 236.673935,45.470837 
	C236.334213,46.359856 236.217224,47.458855 235.613632,48.099117 
	C233.687180,50.142567 231.548813,51.984043 229.548843,53.960762 
	C224.652496,58.800190 224.248199,58.815323 219.429581,53.914524 
	C218.652908,53.124615 217.926773,52.285011 217.177277,51.468384 
	C217.422562,50.985538 217.667831,50.502697 217.913116,50.019852 
	C220.187256,51.121338 222.461411,52.222820 224.963730,53.434822 
	C225.408310,53.014961 226.250748,52.219360 227.397766,51.241703 
z"/>
<path fill="#000000" opacity="1.000000" stroke="none" 
	d="
M204.414673,109.104431 
	C202.441467,110.583099 200.744308,111.767471 199.047150,112.951843 
	C198.031250,111.123840 196.418091,109.384651 196.130157,107.448395 
	C195.612320,103.966011 195.391464,99.881836 200.412949,99.353279 
	C203.543777,99.023727 205.246964,103.095856 204.414673,109.104431 
z"/>
<path fill="#000000" opacity="1.000000" stroke="none" 
	d="
M225.206604,109.031982 
	C226.989395,108.899879 228.377594,108.792091 229.765793,108.684311 
	C230.041656,108.964081 230.317520,109.243843 230.593384,109.523613 
	C228.972839,111.005264 227.429550,112.593742 225.661987,113.872093 
	C225.335907,114.107918 223.367035,112.968826 223.415863,112.670189 
	C223.619751,111.422813 224.303894,110.253944 225.206604,109.031982 
z"/>
<path fill="#000000" opacity="1.000000" stroke="none" 
	d="
M292.279663,112.217247 
	C288.057495,114.283577 286.012360,111.489426 285.515930,108.726723 
	C285.054138,106.156929 285.612061,102.493370 287.245483,100.699028 
	C289.090607,98.672127 292.951691,99.657860 293.576019,102.573006 
	C294.200623,105.489304 292.989288,108.798805 292.279663,112.217247 
z"/>
</svg>